<svg xmlns="http://www.w3.org/2000/svg" xmlns:xlink="http://www.w3.org/1999/xlink" xmlns:lucid="lucid" width="3329" height="1009"><g transform="translate(1624.5 164.5)" lucid:page-tab-id="0_0"><path d="M-1600 28a8 8 0 0 1 8-8h3264a8 8 0 0 1 8 8v784a8 8 0 0 1-8 8h-3264a8 8 0 0 1-8-8z" stroke="#000" stroke-opacity="0" fill="#2b292f"/><path d="M-1600 20v-152a8 8 0 0 1 8-8H360V20zM360-140h1312a8 8 0 0 1 8 8V20H360z" stroke="#000" stroke-opacity="0" stroke-width="9" fill="#78c0e0"/><path d="M360 820h-1952a8 8 0 0 1-8-8V20H360zM1680 20v792a8 8 0 0 1-8 8H360V20z" stroke="#000" stroke-opacity="0" stroke-width="9" fill="none"/><use xlink:href="#a" transform="matrix(1,0,0,1,-1600,-140) translate(890.2132716049384 91.15555555555554)"/><use xlink:href="#b" transform="matrix(1,0,0,1,-1600,-140) translate(1038.799074074074 91.15555555555554)"/><use xlink:href="#a" transform="matrix(1,0,0,1,360,-140) translate(570.2132716049384 91.15555555555554)"/><use xlink:href="#c" transform="matrix(1,0,0,1,360,-140) translate(718.799074074074 91.15555555555554)"/><path d="M-1440 400c22.1 0 40 17.9 40 40s-17.9 40-40 40h-80c-22.1 0-40-17.9-40-40s17.9-40 40-40z" stroke="#000" fill="#6db1ff"/><use xlink:href="#d" transform="matrix(1,0,0,1,-1555,404.99999999999994) translate(48.48765432098766 39.44444444444444)"/><path d="M-1200.9 440h175.8M-1200.88 440h-3.52" stroke="#1071e5" fill="none"/><path d="M-1010.34 440l-14.26 4.63v-9.26z" stroke="#1071e5" fill="#1071e5"/><path d="M-1399 440h176.18" stroke="#54c45e" fill="none"/><path d="M-1399 440.48h-.53l.03-.47-.02-.48h.53z" stroke="#54c45e" stroke-width=".05" fill="#54c45e"/><path d="M-1208.05 440l-14.27 4.63v-9.26z" stroke="#54c45e" fill="#54c45e"/><path d="M-24.98 620h63.66a.1.1 0 0 1 .1.1.1.1 0 0 0 .13.13h47.8" stroke="#1071e5" fill="none"/><path d="M-24.97 620.48h-.64l.24-.96h.4z" stroke="#1071e5" stroke-width=".05" fill="#1071e5"/><path d="M101.45 620.23l-14.26 4.63v-9.27z" stroke="#1071e5" fill="#1071e5"/><path d="M-252.56 620h81.66" stroke="#d916a8" fill="none"/><path d="M-252.55 620.48h-.56l.04-.48-.05-.48h.55z" stroke="#d916a8" stroke-width=".05" fill="#d916a8"/><path d="M-156.13 620l-14.27 4.63v-9.26z" stroke="#d916a8" fill="#d916a8"/><path d="M460 286a6 6 0 0 1 6-6h148a6 6 0 0 1 6 6v108a6 6 0 0 1-6 6H466a6 6 0 0 1-6-6z" stroke="#000" fill="#6db1ff"/><use xlink:href="#e" transform="matrix(1,0,0,1,465,285) translate(21.94444444444445 19.44444444444445)"/><use xlink:href="#f" transform="matrix(1,0,0,1,465,285) translate(28.11728395061729 19.44444444444445)"/><use xlink:href="#g" transform="matrix(1,0,0,1,465,285) translate(103.3641975308642 19.44444444444445)"/><use xlink:href="#h" transform="matrix(1,0,0,1,465,285) translate(40.52469135802469 46.111111111111114)"/><use xlink:href="#i" transform="matrix(1,0,0,1,465,285) translate(3.4876543209876445 72.77777777777779)"/><use xlink:href="#j" transform="matrix(1,0,0,1,465,285) translate(121.82098765432099 72.77777777777779)"/><use xlink:href="#k" transform="matrix(1,0,0,1,465,285) translate(64.50617283950618 99.44444444444446)"/><path d="M621 340h124.16" stroke="#1071e5" fill="none"/><path d="M621 340.48h-.5v-.96h.5z" stroke="#1071e5" stroke-width=".05" fill="#1071e5"/><path d="M759.92 340l-14.26 4.63v-9.26z" stroke="#1071e5" fill="#1071e5"/><path d="M-140.06 567.73A10.4 10.4 0 0 1-130 560h112a6.15 6.15 0 0 1 5.94 7.73l-27.88 104.54A10.4 10.4 0 0 1-50 680h-112a6.15 6.15 0 0 1-5.94-7.73z" stroke="#000" fill="#ff80df"/><use xlink:href="#l" transform="matrix(1,0,0,1,-165,564.9999999999998) translate(13.524999999999999 58.6)"/><use xlink:href="#m" transform="matrix(1,0,0,1,-165,564.9999999999998) translate(59.525 58.6)"/><use xlink:href="#n" transform="matrix(1,0,0,1,-165,564.9999999999998) translate(84.525 58.6)"/><path d="M-1008.22 386a6 6 0 0 1 6-6h148a6 6 0 0 1 6 6v108a6 6 0 0 1-6 6h-148a6 6 0 0 1-6-6z" stroke="#000" fill="#6db1ff"/><use xlink:href="#o" transform="matrix(1,0,0,1,-1003.2211542716143,384.99999999999994) translate(16.388888888888893 46.111111111111114)"/><use xlink:href="#p" transform="matrix(1,0,0,1,-1003.2211542716143,384.99999999999994) translate(108.91975308641975 46.111111111111114)"/><use xlink:href="#q" transform="matrix(1,0,0,1,-1003.2211542716143,384.99999999999994) translate(36.82098765432099 72.77777777777777)"/><path d="M-847.22 440h101.5" stroke="#1071e5" fill="none"/><path d="M-847.2 440.48h-.52v-.96h.5z" stroke="#1071e5" stroke-width=".05" fill="#1071e5"/><path d="M-730.95 440l-14.27 4.63v-9.26z" stroke="#1071e5" fill="#1071e5"/><path d="M-658.73 384.8a10.67 10.67 0 0 1 12.8 0l67.2 50.4a6 6 0 0 1 0 9.6l-67.2 50.4a10.67 10.67 0 0 1-12.8 0l-67.2-50.4a6 6 0 0 1 0-9.6z" stroke="#6db1ff" stroke-width="2" fill="#fff"/><use xlink:href="#r" transform="matrix(1,0,0,1,-727.3317314074216,384.99999999999994) translate(40.05 58.6)"/><path d="M-732.33 186a6 6 0 0 1 6-6h148a6 6 0 0 1 6 6v108a6 6 0 0 1-6 6h-148a6 6 0 0 1-6-6z" stroke="#000" fill="#6db1ff"/><use xlink:href="#s" transform="matrix(1,0,0,1,-727.3317314074216,185) translate(36.141975308641975 32.77777777777778)"/><use xlink:href="#p" transform="matrix(1,0,0,1,-727.3317314074216,185) translate(89.16666666666666 32.77777777777778)"/><use xlink:href="#t" transform="matrix(1,0,0,1,-727.3317314074216,185) translate(24.413580246913583 59.44444444444445)"/><use xlink:href="#u" transform="matrix(1,0,0,1,-727.3317314074216,185) translate(18.888888888888886 86.11111111111111)"/><path d="M-652.33 381.17v-64.3" stroke="#1071e5" fill="none"/><path d="M-651.86 381.7l-.47-.03-.48.02v-.55h.94z" stroke="#1071e5" stroke-width=".05" fill="#1071e5"/><path d="M-652.33 302.12l4.63 14.26h-9.27z" stroke="#1071e5" fill="#1071e5"/><path d="M-279 240h82.16" stroke="#1071e5" fill="none"/><path d="M-279 240.47h-.5v-.94h.5z" stroke="#1071e5" stroke-width=".05" fill="#1071e5"/><path d="M-182.07 240l-14.27 4.63v-9.26z" stroke="#1071e5" fill="#1071e5"/><path d="M-571.33 240h114.45" stroke="#1071e5" fill="none"/><path d="M-571.32 240.47h-.5v-.94h.5z" stroke="#1071e5" stroke-width=".05" fill="#1071e5"/><path d="M-442.12 240l-14.26 4.63v-9.26z" stroke="#1071e5" fill="#1071e5"/><path d="M3 240h83.7" stroke="#e81313" fill="none"/><path d="M3 240.47H2.5l.02-.46v-.47H3z" stroke="#e81313" stroke-width=".05" fill="#e81313"/><path d="M101.45 240l-14.26 4.63v-9.26z" stroke="#e81313" fill="#e81313"/><path d="M203.53 164.7a11 11 0 0 1 12.94 0l97.06 70.6a5.82 5.82 0 0 1 0 9.4l-97.06 70.6a11 11 0 0 1-12.94 0l-97.06-70.6a5.82 5.82 0 0 1 0-9.4z" stroke="#6db1ff" stroke-width="2" fill="#fff"/><use xlink:href="#v" transform="matrix(1,0,0,1,105,165) translate(28.57499999999999 67.8)"/><use xlink:href="#w" transform="matrix(1,0,0,1,105,165) translate(98.52499999999999 67.8)"/><use xlink:href="#x" transform="matrix(1,0,0,1,105,165) translate(171.425 67.8)"/><use xlink:href="#y" transform="matrix(1,0,0,1,105,165) translate(62.574999999999996 89.4)"/><path d="M386.9 228.02l-.14 1.93-.46 1.9-.75 1.8-1.02 1.68-1.27 1.5-1.5 1.26-1.66 1.02-1.8.75-1.9.45-1.94.16h-57.03v-.95h57l1.8-.15 1.77-.42 1.67-.7 1.54-.94 1.38-1.17 1.18-1.38.94-1.54.7-1.67.42-1.76.14-1.82V200.8h.95zm52.66-87.55h-41.1l-1.83.15-1.75.42-1.68.7-1.54.94-1.37 1.17-1.2 1.38-.93 1.54-.7 1.67-.42 1.76-.14 1.82v27.18h-.94v-27.22l.15-1.93.47-1.9.75-1.8 1.02-1.68 1.27-1.5 1.5-1.26 1.67-1.02 1.8-.75 1.92-.45 1.92-.16h41.14z" stroke="#54c45e" stroke-width=".05" fill="#54c45e"/><path d="M317.44 240.47h-.55l.03-.47-.04-.47h.54z" fill="#54c45e"/><path stroke="#54c45e" stroke-width=".05" fill="#54c45e"/><path d="M454.32 140l-14.26 4.63v-9.26z" fill="#54c45e"/><path d="M455.86 140l-16.28 5.3v-10.6zm-15.33 3.98L452.8 140l-12.27-3.98z" stroke="#54c45e" stroke-width=".05" fill="#54c45e"/><use xlink:href="#z" transform="matrix(1,0,0,1,370.98630486236806,179.2) translate(0.005000000000000782 14.4)"/><path d="M386.9 327.98l.16 1.82.42 1.76.7 1.67.93 1.54 1.2 1.38 1.36 1.17 1.54.95 1.68.7 1.75.4 1.82.15h44.67v.96h-44.7l-1.94-.16-1.9-.45-1.8-.75-1.68-1.03-1.5-1.28-1.26-1.5-1.02-1.66-.75-1.8-.46-1.9-.14-1.94v-25.44h.95zm-10.5-88.3l1.9.45 1.8.75 1.67 1.03 1.5 1.28 1.26 1.5 1.02 1.66.75 1.8.46 1.9.15 1.94v29h-.94v-28.96l-.14-1.82-.42-1.76-.7-1.67-.94-1.54-1.18-1.38-1.37-1.17-1.53-.95-1.67-.7-1.76-.4-1.82-.16h-57v-.94h57.03z" stroke="#e81313" stroke-width=".05" fill="#e81313"/><path d="M317.44 240.47h-.55l.03-.47-.04-.47h.54z" fill="#e81313"/><path stroke="#e81313" stroke-width=".05" fill="#e81313"/><path d="M457.88 340l-14.26 4.63v-9.26z" fill="#e81313"/><path d="M459.42 340l-16.28 5.3v-10.6zm-15.33 3.98l12.25-3.98-12.26-3.98z" stroke="#e81313" stroke-width=".05" fill="#e81313"/><use xlink:href="#A" transform="matrix(1,0,0,1,369.961304862368,280.97902665830765) translate(0.004999999999999005 14.4)"/><path d="M-440 186a6 6 0 0 1 6-6h148a6 6 0 0 1 6 6v108a6 6 0 0 1-6 6h-148a6 6 0 0 1-6-6z" stroke="#000" fill="#6db1ff"/><use xlink:href="#B" transform="matrix(1,0,0,1,-435,185) translate(29.96913580246914 46.111111111111114)"/><use xlink:href="#C" transform="matrix(1,0,0,1,-435,185) translate(15.802469135802454 72.77777777777777)"/><path d="M-149.04 179.7a13.5 13.5 0 0 1 11.84-7.03h120.8C-6.24 172.67 2 202.8 2 240c0 37.2-8.24 67.33-18.4 67.33h-120.8a13.5 13.5 0 0 1-11.84-7.02l-29.12-53.28a14.64 14.64 0 0 1 0-14.04z" stroke="#e81313" fill="#fff"/><use xlink:href="#D" transform="matrix(1,0,0,1,-177,177.66666666666669) translate(14.650000000000006 55.3)"/><use xlink:href="#E" transform="matrix(1,0,0,1,-177,177.66666666666669) translate(64.50000000000001 55.3)"/><use xlink:href="#F" transform="matrix(1,0,0,1,-177,177.66666666666669) translate(125.4 55.3)"/><use xlink:href="#G" transform="matrix(1,0,0,1,-177,177.66666666666669) translate(20.549999999999997 76.9)"/><use xlink:href="#H" transform="matrix(1,0,0,1,-177,177.66666666666669) translate(91.5 76.9)"/><path d="M576.44 100c22.1 0 40 17.9 40 40s-17.9 40-40 40h-80c-22.1 0-40-17.9-40-40s17.9-40 40-40z" stroke="#000" fill="#6db1ff"/><use xlink:href="#I" transform="matrix(1,0,0,1,461.4423085432286,105) translate(56.574074074074076 39.44444444444444)"/><path d="M792.96 279.7a13.5 13.5 0 0 1 11.84-7.03h120.8c10.16 0 18.4 30.14 18.4 67.33 0 37.2-8.24 67.33-18.4 67.33H804.8a13.5 13.5 0 0 1-11.84-7.02l-29.12-53.28a14.64 14.64 0 0 1 0-14.04z" stroke="#e81313" fill="#fff"/><use xlink:href="#D" transform="matrix(1,0,0,1,765,277.6666666666667) translate(14.650000000000006 55.3)"/><use xlink:href="#E" transform="matrix(1,0,0,1,765,277.6666666666667) translate(64.50000000000001 55.3)"/><use xlink:href="#F" transform="matrix(1,0,0,1,765,277.6666666666667) translate(125.4 55.3)"/><use xlink:href="#G" transform="matrix(1,0,0,1,765,277.6666666666667) translate(20.549999999999997 76.9)"/><use xlink:href="#H" transform="matrix(1,0,0,1,765,277.6666666666667) translate(91.5 76.9)"/><path d="M1163.53 264.7a11 11 0 0 1 12.94 0l97.06 70.6a5.82 5.82 0 0 1 0 9.4l-97.06 70.6a11 11 0 0 1-12.94 0l-97.06-70.6a5.82 5.82 0 0 1 0-9.4z" stroke="#6db1ff" stroke-width="2" fill="#fff"/><use xlink:href="#v" transform="matrix(1,0,0,1,1065,265) translate(28.57499999999999 67.8)"/><use xlink:href="#w" transform="matrix(1,0,0,1,1065,265) translate(98.52499999999999 67.8)"/><use xlink:href="#x" transform="matrix(1,0,0,1,1065,265) translate(171.425 67.8)"/><use xlink:href="#y" transform="matrix(1,0,0,1,1065,265) translate(62.574999999999996 89.4)"/><path d="M1348.7 328.02l-.16 1.93-.46 1.9-.75 1.8-1.02 1.68-1.26 1.5-1.5 1.26-1.66 1.02-1.8.75-1.9.45-1.95.16h-58.8v-.96h58.77l1.82-.14 1.76-.42 1.67-.7 1.54-.94 1.36-1.17 1.18-1.38.94-1.54.7-1.67.42-1.76.14-1.82V300.8h.95zm54.42-87.54h-42.9l-1.8.14-1.77.42-1.67.7-1.54.94-1.37 1.17-1.18 1.38-.95 1.54-.7 1.67-.42 1.76-.14 1.82v27.18h-.96v-27.22l.15-1.93.45-1.9.75-1.8 1.02-1.68 1.27-1.5 1.48-1.26 1.67-1.02 1.8-.75 1.9-.45 1.95-.16h42.92z" stroke="#54c45e" stroke-width=".05" fill="#54c45e"/><path d="M1277.44 340.48h-.55l.03-.48-.04-.48h.54z" fill="#54c45e"/><path stroke="#54c45e" stroke-width=".05" fill="#54c45e"/><path d="M1417.88 240l-14.26 4.63v-9.26z" fill="#54c45e"/><path d="M1419.42 240l-16.28 5.3v-10.6zm-15.33 3.98l12.25-3.98-12.26-3.98z" stroke="#54c45e" stroke-width=".05" fill="#54c45e"/><use xlink:href="#z" transform="matrix(1,0,0,1,1332.7651505907536,279.1999999999999) translate(0.005000000000000782 14.4)"/><path d="M443.12 340.48h-44.67l-1.82.14-1.75.42-1.68.7-1.54.94-1.37 1.17-1.2 1.38-.93 1.54-.7 1.67-.42 1.76-.14 1.82v95.96l.16 1.82.42 1.76.7 1.67.93 1.54 1.2 1.38 1.36 1.17 1.54.95 1.68.7 1.75.4 1.82.15h935.97l1.82-.14 1.76-.42 1.67-.7 1.54-.94 1.38-1.17 1.18-1.38.94-1.54.7-1.67.42-1.76.14-1.82v-95.96l-.14-1.82-.42-1.76-.7-1.67-.94-1.54-1.17-1.38-1.4-1.17-1.53-.95-1.67-.7-1.76-.4-1.82-.15h-57v-.96h57.03l1.94.16 1.9.45 1.8.75 1.67 1.03 1.5 1.28 1.26 1.5 1.02 1.66.75 1.8.46 1.9.15 1.94v96.04l-.14 1.93-.46 1.9-.75 1.8-1.02 1.68-1.27 1.5-1.5 1.26-1.66 1.02-1.8.75-1.9.45-1.95.16H398.42l-1.94-.16-1.9-.45-1.8-.75-1.68-1.03-1.5-1.28-1.26-1.5-1.02-1.66-.75-1.8-.46-1.9-.14-1.94v-96.04l.15-1.93.47-1.9.75-1.8 1.02-1.68 1.27-1.5 1.5-1.26 1.67-1.02 1.8-.75 1.92-.45 1.92-.16h44.7z" stroke="#e81313" stroke-width=".05" fill="#e81313"/><path d="M1277.44 340.48h-.55l.03-.48-.04-.48h.54z" fill="#e81313"/><path stroke="#e81313" stroke-width=".05" fill="#e81313"/><path d="M457.88 340l-14.26 4.63v-9.26z" fill="#e81313"/><path d="M459.42 340l-16.28 5.3v-10.6zm-15.33 3.98l12.25-3.98-12.26-3.98z" stroke="#e81313" stroke-width=".05" fill="#e81313"/><use xlink:href="#A" transform="matrix(1,0,0,1,848.1822782040607,434.4) translate(0.004999999999999005 14.4)"/><path d="M1540 200c22.1 0 40 17.9 40 40s-17.9 40-40 40h-80c-22.1 0-40-17.9-40-40s17.9-40 40-40z" stroke="#000" fill="#6db1ff"/><use xlink:href="#I" transform="matrix(1,0,0,1,1425,205) translate(56.574074074074076 39.44444444444444)"/><path d="M945 340h101.7" stroke="#e81313" fill="none"/><path d="M945 340.48h-.52l.02-.47v-.48h.5z" stroke="#e81313" stroke-width=".05" fill="#e81313"/><path d="M1061.45 340l-14.26 4.63v-9.26z" stroke="#e81313" fill="#e81313"/><path d="M-732.33 587.92a9.06 9.06 0 0 1 7.94-9L-580.26 561a7.07 7.07 0 0 1 7.94 7v104a8 8 0 0 1-8 8h-144a8 8 0 0 1-8-8z" stroke="#1071e5" fill="#fff"/><use xlink:href="#J" transform="matrix(1,0,0,1,-727.3317314074216,584.9999999999999) translate(2.125 48.6)"/><use xlink:href="#K" transform="matrix(1,0,0,1,-727.3317314074216,584.9999999999999) translate(44.975 48.6)"/><use xlink:href="#L" transform="matrix(1,0,0,1,-727.3317314074216,584.9999999999999) translate(69.975 48.6)"/><path d="M-652.33 498.83v54.24" stroke="#1071e5" fill="none"/><path d="M-652.33 498.33l.47-.02v.55h-.95v-.55z" stroke="#1071e5" stroke-width=".05" fill="#1071e5"/><path d="M-652.33 567.84l-4.64-14.27h9.27z" stroke="#1071e5" fill="#1071e5"/><path d="M-571.33 620.23h51.83a.1.1 0 0 0 .12-.12.1.1 0 0 1 .1-.1h35.96" stroke="#1071e5" fill="none"/><path d="M-571.32 620.7h-.5v-.95h.5z" stroke="#1071e5" stroke-width=".05" fill="#1071e5"/><path d="M-468.56 620l-14.26 4.63v-9.26z" stroke="#1071e5" fill="#1071e5"/><path d="M468.92 559.7a13.5 13.5 0 0 1 11.83-7.03h120.8c10.17 0 18.4 30.14 18.4 67.33 0 37.2-8.23 67.33-18.4 67.33h-120.8a13.5 13.5 0 0 1-11.83-7.02l-29.13-53.28a14.64 14.64 0 0 1 0-14.04z" stroke="#e81313" fill="#fff"/><g><use xlink:href="#D" transform="matrix(1,0,0,1,440.95400404510565,557.6666666666665) translate(14.650000000000006 55.3)"/><use xlink:href="#E" transform="matrix(1,0,0,1,440.95400404510565,557.6666666666665) translate(64.50000000000001 55.3)"/><use xlink:href="#F" transform="matrix(1,0,0,1,440.95400404510565,557.6666666666665) translate(125.4 55.3)"/><use xlink:href="#G" transform="matrix(1,0,0,1,440.95400404510565,557.6666666666665) translate(20.549999999999997 76.9)"/><use xlink:href="#H" transform="matrix(1,0,0,1,440.95400404510565,557.6666666666665) translate(91.5 76.9)"/></g><path d="M203.53 544.93a11 11 0 0 1 12.94 0l97.06 70.6a5.82 5.82 0 0 1 0 9.4l-97.06 70.6a11 11 0 0 1-12.94 0l-97.06-70.6a5.82 5.82 0 0 1 0-9.4z" stroke="#6db1ff" stroke-width="2" fill="#fff"/><g><use xlink:href="#M" transform="matrix(1,0,0,1,105,545.2259767903231) translate(15.049999999999997 78.60000000000001)"/><use xlink:href="#N" transform="matrix(1,0,0,1,105,545.2259767903231) translate(93 78.60000000000001)"/></g><path d="M361.76 620.7h-44.33v-.95h44.33zm59.35-.23h-28.44v-.95h28.45z" stroke="#54c45e" stroke-width=".05" fill="#54c45e"/><path d="M317.44 620.7h-.55l.03-.47-.04-.48h.54z" fill="#54c45e"/><path stroke="#54c45e" stroke-width=".05" fill="#54c45e"/><path d="M435.88 620l-14.27 4.63v-9.26z" fill="#54c45e"/><path d="M437.42 620l-16.28 5.3v-10.6zm-15.33 3.98l12.24-3.98-12.25-3.98z" stroke="#54c45e" stroke-width=".05" fill="#54c45e"/><g><use xlink:href="#z" transform="matrix(1,0,0,1,361.7637500888258,609.3129883951615) translate(0.005000000000000782 14.4)"/></g><path d="M859.95 580c22.1 0 40 17.9 40 40s-17.9 40-40 40h-80c-22.1 0-40-17.9-40-40s17.9-40 40-40z" stroke="#000" fill="#6db1ff"/><g><use xlink:href="#I" transform="matrix(1,0,0,1,744.9540040451056,584.9999999999998) translate(56.574074074074076 39.44444444444444)"/></g><path d="M620.95 620h102.12" stroke="#54c45e" fill="none"/><path d="M620.97 620.48h-.53v-.95h.53z" stroke="#54c45e" stroke-width=".05" fill="#54c45e"/><path d="M737.84 620l-14.27 4.63v-9.26z" stroke="#54c45e" fill="#54c45e"/><path d="M443.12 340.48h-93.17l-1.82.14-1.76.42-1.67.7-1.54.94-1.38 1.17-1.17 1.38-.94 1.54-.7 1.67-.4 1.76-.15 1.82v256.23l-.15 1.93-.45 1.9-.75 1.8-1.03 1.68-1.27 1.5-1.5 1.26-1.65 1.02-1.8.75-1.92.45-1.93.15h-8.52v-.95h8.48l1.83-.14 1.76-.4 1.66-.7 1.54-.95 1.38-1.18 1.17-1.37.95-1.54.7-1.67.4-1.77.16-1.82V352l.15-1.93.46-1.9.75-1.8 1.04-1.68 1.27-1.5 1.5-1.26 1.67-1.02 1.8-.75 1.9-.45 1.94-.16h93.22z" stroke="#e81313" stroke-width=".05" fill="#e81313"/><path d="M317.44 620.7h-.55l.03-.47-.04-.48h.54z" fill="#e81313"/><path stroke="#e81313" stroke-width=".05" fill="#e81313"/><path d="M457.88 340l-14.26 4.63v-9.26z" fill="#e81313"/><path d="M459.42 340l-16.28 5.3v-10.6zm-15.33 3.98l12.25-3.98-12.26-3.98z" stroke="#e81313" stroke-width=".05" fill="#e81313"/><g><use xlink:href="#A" transform="matrix(1,0,0,1,296.9806130413516,441.51030276261685) translate(0.004999999999999005 14.4)"/></g><path d="M-366.46 544.5a10.97 10.97 0 0 1 12.92 0l97.08 70.8a5.83 5.83 0 0 1 0 9.4l-97.08 70.8a10.97 10.97 0 0 1-12.92 0l-97.08-70.8a5.83 5.83 0 0 1 0-9.4z" stroke="#6db1ff" stroke-width="2" fill="#fff"/><g><use xlink:href="#O" transform="matrix(1,0,0,1,-465,544.7740232096766) translate(36.599999999999994 68.3)"/><use xlink:href="#P" transform="matrix(1,0,0,1,-465,544.7740232096766) translate(100.44999999999999 68.3)"/><use xlink:href="#Q" transform="matrix(1,0,0,1,-465,544.7740232096766) translate(28.525000000000006 89.9)"/><use xlink:href="#R" transform="matrix(1,0,0,1,-465,544.7740232096766) translate(33.525000000000006 89.9)"/><use xlink:href="#S" transform="matrix(1,0,0,1,-465,544.7740232096766) translate(58.525000000000006 89.9)"/><use xlink:href="#K" transform="matrix(1,0,0,1,-465,544.7740232096766) translate(104.525 89.9)"/><use xlink:href="#T" transform="matrix(1,0,0,1,-465,544.7740232096766) translate(129.525 89.9)"/></g><path d="M360-139.5a.5.5 0 0 1 .5-.5.5.5 0 0 1 .5.5v159a.5.5 0 0 1-.5.5.5.5 0 0 1-.5-.5z" stroke="#fff" stroke-width="5" fill="#6f7681"/><path d="M-1184.36 369.75c0 10.9-8.84 19.75-19.75 19.75-10.92 0-19.76-8.84-19.76-19.75 0-10.9 8.84-19.75 19.75-19.75 10.9 0 19.74 8.84 19.74 19.75z" stroke="#fff" stroke-width="5" fill-opacity="0"/><path d="M-1204.1 389.5v47.3a27.6 27.6 0 0 0 4.27 14.76l35.72 56.44m-40-63.2l-40 63.2m0-98.75h80" stroke="#fff" stroke-width="5" fill="none"/><path d="M-1244.1 358a8 8 0 0 1 8-8h64a8 8 0 0 1 8 8v164a8 8 0 0 1-8 8h-64a8 8 0 0 1-8-8z" fill="none"/><g><use xlink:href="#U" transform="matrix(1,0,0,1,-1324.110577135807,508) translate(89.07499999999999 14.6)"/></g><defs><path fill="#fff" d="M175 0L67-191c6 58 2 128 3 191H24v-248h59L193-55c-6-58-2-129-3-193h46V0h-61" id="V"/><path fill="#fff" d="M25 0v-190h50V0H25zm-5-208v-5l45-51h45v8l-60 48H20" id="W"/><path fill="#fff" d="M128 0H69L1-190h53L99-40l48-150h52" id="X"/><path fill="#fff" d="M185-48c-13 30-37 53-82 52C43 2 14-33 14-96s30-98 90-98c62 0 83 45 84 108H66c0 31 8 55 39 56 18 0 30-7 34-22zm-45-69c5-46-57-63-70-21-2 6-4 13-4 21h74" id="Y"/><path fill="#fff" d="M25 0v-261h50V0H25" id="Z"/><g id="a"><use transform="matrix(0.15493827160493803,0,0,0.15493827160493803,0,0)" xlink:href="#V"/><use transform="matrix(0.15493827160493803,0,0,0.15493827160493803,40.12901234567895,0)" xlink:href="#W"/><use transform="matrix(0.15493827160493803,0,0,0.15493827160493803,55.62283950617275,0)" xlink:href="#X"/><use transform="matrix(0.15493827160493803,0,0,0.15493827160493803,86.61049382716035,0)" xlink:href="#Y"/><use transform="matrix(0.15493827160493803,0,0,0.15493827160493803,117.59814814814796,0)" xlink:href="#Z"/></g><path fill="#fff" d="M23 0v-37h61v-169l-59 37v-38l62-41h46v211h57V0H23" id="aa"/><use transform="matrix(0.15493827160493803,0,0,0.15493827160493803,0,0)" xlink:href="#aa" id="b"/><path fill="#fff" d="M182-182c0 78-84 86-111 141h115V0H12c-6-101 99-100 120-180 1-22-12-31-33-32-23 0-32 14-35 34l-49-3c5-45 32-70 84-70 51 0 83 22 83 69" id="ab"/><use transform="matrix(0.15493827160493803,0,0,0.15493827160493803,0,0)" xlink:href="#ab" id="c"/><path fill="#f2f3f5" d="M33 0v-248h34V0H33" id="ac"/><path fill="#f2f3f5" d="M117-194c89-4 53 116 60 194h-32v-121c0-31-8-49-39-48C34-167 62-67 57 0H25l-1-190h30c1 10-1 24 2 32 11-22 29-35 61-36" id="ad"/><path fill="#f2f3f5" d="M34 0v-190h32V0H34zM24-211c8-23 27-35 38-54h36v5l-58 49H24" id="ae"/><path fill="#f2f3f5" d="M96-169c-40 0-48 33-48 73s9 75 48 75c24 0 41-14 43-38l32 2c-6 37-31 61-74 61-59 0-76-41-82-99-10-93 101-131 147-64 4 7 5 14 7 22l-32 3c-4-21-16-35-41-35" id="af"/><path fill="#f2f3f5" d="M24-231v-30h32v30H24zM24 0v-190h32V0H24" id="ag"/><path fill="#f2f3f5" d="M100-194c62-1 85 37 85 99 1 63-27 99-86 99S16-35 15-95c0-66 28-99 85-99zM99-20c44 1 53-31 53-75 0-43-8-75-51-75s-53 32-53 75 10 74 51 75" id="ah"/><g id="d"><use transform="matrix(0.06172839506172839,0,0,0.06172839506172839,0,0)" xlink:href="#ac"/><use transform="matrix(0.06172839506172839,0,0,0.06172839506172839,6.172839506172839,0)" xlink:href="#ad"/><use transform="matrix(0.06172839506172839,0,0,0.06172839506172839,18.51851851851852,0)" xlink:href="#ae"/><use transform="matrix(0.06172839506172839,0,0,0.06172839506172839,24.691358024691358,0)" xlink:href="#af"/><use transform="matrix(0.06172839506172839,0,0,0.06172839506172839,35.80246913580247,0)" xlink:href="#ag"/><use transform="matrix(0.06172839506172839,0,0,0.06172839506172839,40.67901234567901,0)" xlink:href="#ah"/></g><path fill="#fff" d="M160-131c35 5 61 23 61 61C221 17 115-2 30 0v-248c76 3 177-17 177 60 0 33-19 50-47 57zm-97-11c50-1 110 9 110-42 0-47-63-36-110-37v79zm0 115c55-2 124 14 124-45 0-56-70-42-124-44v89" id="ai"/><path fill="#fff" d="M84 4C-5 8 30-112 23-190h32v120c0 31 7 50 39 49 72-2 45-101 50-169h31l1 190h-30c-1-10 1-25-2-33-11 22-28 36-60 37" id="aj"/><path fill="#fff" d="M135-143c-3-34-86-38-87 0 15 53 115 12 119 90S17 21 10-45l28-5c4 36 97 45 98 0-10-56-113-15-118-90-4-57 82-63 122-42 12 7 21 19 24 35" id="ak"/><path fill="#fff" d="M96-169c-40 0-48 33-48 73s9 75 48 75c24 0 41-14 43-38l32 2c-6 37-31 61-74 61-59 0-76-41-82-99-10-93 101-131 147-64 4 7 5 14 7 22l-32 3c-4-21-16-35-41-35" id="al"/><path fill="#fff" d="M141-36C126-15 110 5 73 4 37 3 15-17 15-53c-1-64 63-63 125-63 3-35-9-54-41-54-24 1-41 7-42 31l-33-3c5-37 33-52 76-52 45 0 72 20 72 64v82c-1 20 7 32 28 27v20c-31 9-61-2-59-35zM48-53c0 20 12 33 32 33 41-3 63-29 60-74-43 2-92-5-92 41" id="am"/><path fill="#fff" d="M114-163C36-179 61-72 57 0H25l-1-190h30c1 12-1 29 2 39 6-27 23-49 58-41v29" id="an"/><g id="f"><use transform="matrix(0.06172839506172839,0,0,0.06172839506172839,0,0)" xlink:href="#ai"/><use transform="matrix(0.06172839506172839,0,0,0.06172839506172839,14.814814814814813,0)" xlink:href="#aj"/><use transform="matrix(0.06172839506172839,0,0,0.06172839506172839,27.160493827160494,0)" xlink:href="#ak"/><use transform="matrix(0.06172839506172839,0,0,0.06172839506172839,38.27160493827161,0)" xlink:href="#al"/><use transform="matrix(0.06172839506172839,0,0,0.06172839506172839,49.38271604938272,0)" xlink:href="#am"/><use transform="matrix(0.06172839506172839,0,0,0.06172839506172839,61.7283950617284,0)" xlink:href="#an"/></g><path fill="#fff" d="M117-194c89-4 53 116 60 194h-32v-121c0-31-8-49-39-48C34-167 62-67 57 0H25l-1-190h30c1 10-1 24 2 32 11-22 29-35 61-36" id="ao"/><g id="g"><use transform="matrix(0.06172839506172839,0,0,0.06172839506172839,0,0)" xlink:href="#ao"/><use transform="matrix(0.06172839506172839,0,0,0.06172839506172839,12.345679012345679,0)" xlink:href="#am"/></g><path fill="#fff" d="M115-194c55 1 70 41 70 98S169 2 115 4C84 4 66-9 55-30l1 105H24l-1-265h31l2 30c10-21 28-34 59-34zm-8 174c40 0 45-34 45-75s-6-73-45-74c-42 0-51 32-51 76 0 43 10 73 51 73" id="ap"/><path fill="#fff" d="M100-194c62-1 85 37 85 99 1 63-27 99-86 99S16-35 15-95c0-66 28-99 85-99zM99-20c44 1 53-31 53-75 0-43-8-75-51-75s-53 32-53 75 10 74 51 75zM76-211c8-23 27-35 38-54h36v5l-58 49H76" id="aq"/><path fill="#fff" d="M24-231v-30h32v30H24zM24 0v-190h32V0H24" id="ar"/><g id="h"><use transform="matrix(0.06172839506172839,0,0,0.06172839506172839,0,0)" xlink:href="#ap"/><use transform="matrix(0.06172839506172839,0,0,0.06172839506172839,12.345679012345679,0)" xlink:href="#an"/><use transform="matrix(0.06172839506172839,0,0,0.06172839506172839,19.691358024691358,0)" xlink:href="#aq"/><use transform="matrix(0.06172839506172839,0,0,0.06172839506172839,32.03703703703704,0)" xlink:href="#ap"/><use transform="matrix(0.06172839506172839,0,0,0.06172839506172839,44.382716049382715,0)" xlink:href="#an"/><use transform="matrix(0.06172839506172839,0,0,0.06172839506172839,51.72839506172839,0)" xlink:href="#ar"/><use transform="matrix(0.06172839506172839,0,0,0.06172839506172839,56.60493827160494,0)" xlink:href="#am"/></g><path fill="#fff" d="M33 0v-248h34V0H33" id="as"/><path fill="#fff" d="M59-47c-2 24 18 29 38 22v24C64 9 27 4 27-40v-127H5v-23h24l9-43h21v43h35v23H59v120" id="at"/><path fill="#fff" d="M100-194c63 0 86 42 84 106H49c0 40 14 67 53 68 26 1 43-12 49-29l28 8c-11 28-37 45-77 45C44 4 14-33 15-96c1-61 26-98 85-98zm52 81c6-60-76-77-97-28-3 7-6 17-6 28h103" id="au"/><path fill="#fff" d="M24 0v-261h32V0H24" id="av"/><path fill="#fff" d="M177-190C167-65 218 103 67 71c-23-6-38-20-44-43l32-5c15 47 100 32 89-28v-30C133-14 115 1 83 1 29 1 15-40 15-95c0-56 16-97 71-98 29-1 48 16 59 35 1-10 0-23 2-32h30zM94-22c36 0 50-32 50-73 0-42-14-75-50-75-39 0-46 34-46 75s6 73 46 73" id="aw"/><path fill="#fff" d="M100-194c63 0 86 42 84 106H49c0 40 14 67 53 68 26 1 43-12 49-29l28 8c-11 28-37 45-77 45C44 4 14-33 15-96c1-61 26-98 85-98zm52 81c6-60-76-77-97-28-3 7-6 17-6 28h103zm-32-149c12 18 30 30 39 51-31 2-38-20-57-30-20 10-27 32-59 30 9-22 29-33 41-51h36" id="ax"/><g id="i"><use transform="matrix(0.06172839506172839,0,0,0.06172839506172839,0,0)" xlink:href="#as"/><use transform="matrix(0.06172839506172839,0,0,0.06172839506172839,6.172839506172839,0)" xlink:href="#ao"/><use transform="matrix(0.06172839506172839,0,0,0.06172839506172839,18.51851851851852,0)" xlink:href="#at"/><use transform="matrix(0.06172839506172839,0,0,0.06172839506172839,24.691358024691358,0)" xlink:href="#au"/><use transform="matrix(0.06172839506172839,0,0,0.06172839506172839,37.03703703703704,0)" xlink:href="#av"/><use transform="matrix(0.06172839506172839,0,0,0.06172839506172839,41.91358024691358,0)" xlink:href="#ar"/><use transform="matrix(0.06172839506172839,0,0,0.06172839506172839,46.79012345679013,0)" xlink:href="#aw"/><use transform="matrix(0.06172839506172839,0,0,0.06172839506172839,59.135802469135804,0)" xlink:href="#ax"/><use transform="matrix(0.06172839506172839,0,0,0.06172839506172839,71.48148148148148,0)" xlink:href="#ao"/><use transform="matrix(0.06172839506172839,0,0,0.06172839506172839,83.82716049382717,0)" xlink:href="#al"/><use transform="matrix(0.06172839506172839,0,0,0.06172839506172839,94.93827160493828,0)" xlink:href="#ar"/><use transform="matrix(0.06172839506172839,0,0,0.06172839506172839,99.81481481481482,0)" xlink:href="#am"/></g><path fill="#fff" d="M85-194c31 0 48 13 60 33l-1-100h32l1 261h-30c-2-10 0-23-3-31C134-8 116 4 85 4 32 4 16-35 15-94c0-66 23-100 70-100zm9 24c-40 0-46 34-46 75 0 40 6 74 45 74 42 0 51-32 51-76 0-42-9-74-50-73" id="ay"/><g id="j"><use transform="matrix(0.06172839506172839,0,0,0.06172839506172839,0,0)" xlink:href="#ay"/><use transform="matrix(0.06172839506172839,0,0,0.06172839506172839,12.345679012345679,0)" xlink:href="#am"/></g><path fill="#fff" d="M205 0l-28-72H64L36 0H1l101-248h38L239 0h-34zm-38-99l-47-123c-12 45-31 82-46 123h93" id="az"/><g id="k"><use transform="matrix(0.06172839506172839,0,0,0.06172839506172839,0,0)" xlink:href="#as"/><use transform="matrix(0.06172839506172839,0,0,0.06172839506172839,6.172839506172839,0)" xlink:href="#az"/></g><g id="l"><use transform="matrix(0.05,0,0,0.05,0,0)" xlink:href="#ai"/><use transform="matrix(0.05,0,0,0.05,12,0)" xlink:href="#am"/><use transform="matrix(0.05,0,0,0.05,22,0)" xlink:href="#ak"/><use transform="matrix(0.05,0,0,0.05,31,0)" xlink:href="#au"/></g><g id="m"><use transform="matrix(0.05,0,0,0.05,0,0)" xlink:href="#ay"/><use transform="matrix(0.05,0,0,0.05,10,0)" xlink:href="#au"/></g><path fill="#fff" d="M30-248c118-7 216 8 213 122C240-48 200 0 122 0H30v-248zM63-27c89 8 146-16 146-99s-60-101-146-95v194" id="aA"/><path fill="#fff" d="M100-194c62-1 85 37 85 99 1 63-27 99-86 99S16-35 15-95c0-66 28-99 85-99zM99-20c44 1 53-31 53-75 0-43-8-75-51-75s-53 32-53 75 10 74 51 75" id="aB"/><g id="n"><use transform="matrix(0.05,0,0,0.05,0,0)" xlink:href="#aA"/><use transform="matrix(0.05,0,0,0.05,12.950000000000001,0)" xlink:href="#am"/><use transform="matrix(0.05,0,0,0.05,22.950000000000003,0)" xlink:href="#ay"/><use transform="matrix(0.05,0,0,0.05,32.95,0)" xlink:href="#aB"/><use transform="matrix(0.05,0,0,0.05,42.95,0)" xlink:href="#ak"/></g><path fill="#fff" d="M101-234c-31-9-42 10-38 44h38v23H63V0H32v-167H5v-23h27c-7-52 17-82 69-68v24" id="aC"/><g id="o"><use transform="matrix(0.06172839506172839,0,0,0.06172839506172839,0,0)" xlink:href="#as"/><use transform="matrix(0.06172839506172839,0,0,0.06172839506172839,6.172839506172839,0)" xlink:href="#ao"/><use transform="matrix(0.06172839506172839,0,0,0.06172839506172839,18.51851851851852,0)" xlink:href="#at"/><use transform="matrix(0.06172839506172839,0,0,0.06172839506172839,24.691358024691358,0)" xlink:href="#au"/><use transform="matrix(0.06172839506172839,0,0,0.06172839506172839,37.03703703703704,0)" xlink:href="#an"/><use transform="matrix(0.06172839506172839,0,0,0.06172839506172839,44.382716049382715,0)" xlink:href="#aC"/><use transform="matrix(0.06172839506172839,0,0,0.06172839506172839,50.55555555555556,0)" xlink:href="#am"/><use transform="matrix(0.06172839506172839,0,0,0.06172839506172839,62.901234567901234,0)" xlink:href="#al"/><use transform="matrix(0.06172839506172839,0,0,0.06172839506172839,74.01234567901234,0)" xlink:href="#au"/></g><g id="p"><use transform="matrix(0.06172839506172839,0,0,0.06172839506172839,0,0)" xlink:href="#ay"/><use transform="matrix(0.06172839506172839,0,0,0.06172839506172839,12.345679012345679,0)" xlink:href="#au"/></g><path fill="#fff" d="M232-93c-1 65-40 97-104 97C67 4 28-28 28-90v-158h33c8 89-33 224 67 224 102 0 64-133 71-224h33v155" id="aD"/><path fill="#fff" d="M141-36C126-15 110 5 73 4 37 3 15-17 15-53c-1-64 63-63 125-63 3-35-9-54-41-54-24 1-41 7-42 31l-33-3c5-37 33-52 76-52 45 0 72 20 72 64v82c-1 20 7 32 28 27v20c-31 9-61-2-59-35zM48-53c0 20 12 33 32 33 41-3 63-29 60-74-43 2-92-5-92 41zm25-158c8-23 27-35 38-54h36v5l-58 49H73" id="aE"/><g id="q"><use transform="matrix(0.06172839506172839,0,0,0.06172839506172839,0,0)" xlink:href="#aD"/><use transform="matrix(0.06172839506172839,0,0,0.06172839506172839,15.987654320987653,0)" xlink:href="#ak"/><use transform="matrix(0.06172839506172839,0,0,0.06172839506172839,27.098765432098766,0)" xlink:href="#aj"/><use transform="matrix(0.06172839506172839,0,0,0.06172839506172839,39.44444444444444,0)" xlink:href="#aE"/><use transform="matrix(0.06172839506172839,0,0,0.06172839506172839,51.79012345679012,0)" xlink:href="#an"/><use transform="matrix(0.06172839506172839,0,0,0.06172839506172839,59.1358024691358,0)" xlink:href="#ar"/><use transform="matrix(0.06172839506172839,0,0,0.06172839506172839,64.01234567901234,0)" xlink:href="#aB"/></g><path fill="#3a414a" d="M30 0v-248h187v28H63v79h144v27H63v87h162V0H30" id="aF"/><path fill="#3a414a" d="M135-143c-3-34-86-38-87 0 15 53 115 12 119 90S17 21 10-45l28-5c4 36 97 45 98 0-10-56-113-15-118-90-4-57 82-63 122-42 12 7 21 19 24 35" id="aG"/><path fill="#3a414a" d="M96-169c-40 0-48 33-48 73s9 75 48 75c24 0 41-14 43-38l32 2c-6 37-31 61-74 61-59 0-76-41-82-99-10-93 101-131 147-64 4 7 5 14 7 22l-32 3c-4-21-16-35-41-35" id="aH"/><path fill="#3a414a" d="M100-194c62-1 85 37 85 99 1 63-27 99-86 99S16-35 15-95c0-66 28-99 85-99zM99-20c44 1 53-31 53-75 0-43-8-75-51-75s-53 32-53 75 10 74 51 75" id="aI"/><path fill="#3a414a" d="M24 0v-261h32V0H24" id="aJ"/><path fill="#3a414a" d="M106-169C34-169 62-67 57 0H25v-261h32l-1 103c12-21 28-36 61-36 89 0 53 116 60 194h-32v-121c2-32-8-49-39-48" id="aK"/><path fill="#3a414a" d="M100-194c63 0 86 42 84 106H49c0 40 14 67 53 68 26 1 43-12 49-29l28 8c-11 28-37 45-77 45C44 4 14-33 15-96c1-61 26-98 85-98zm52 81c6-60-76-77-97-28-3 7-6 17-6 28h103" id="aL"/><path fill="#3a414a" d="M114-163C36-179 61-72 57 0H25l-1-190h30c1 12-1 29 2 39 6-27 23-49 58-41v29" id="aM"/><g id="r"><use transform="matrix(0.05,0,0,0.05,0,0)" xlink:href="#aF"/><use transform="matrix(0.05,0,0,0.05,12,0)" xlink:href="#aG"/><use transform="matrix(0.05,0,0,0.05,21,0)" xlink:href="#aH"/><use transform="matrix(0.05,0,0,0.05,30,0)" xlink:href="#aI"/><use transform="matrix(0.05,0,0,0.05,40,0)" xlink:href="#aJ"/><use transform="matrix(0.05,0,0,0.05,43.95,0)" xlink:href="#aK"/><use transform="matrix(0.05,0,0,0.05,53.95,0)" xlink:href="#aL"/><use transform="matrix(0.05,0,0,0.05,63.95,0)" xlink:href="#aM"/></g><path fill="#fff" d="M30 0v-248h33v221h125V0H30" id="aN"/><g id="s"><use transform="matrix(0.06172839506172839,0,0,0.06172839506172839,0,0)" xlink:href="#aN"/><use transform="matrix(0.06172839506172839,0,0,0.06172839506172839,12.345679012345679,0)" xlink:href="#ar"/><use transform="matrix(0.06172839506172839,0,0,0.06172839506172839,17.22222222222222,0)" xlink:href="#ak"/><use transform="matrix(0.06172839506172839,0,0,0.06172839506172839,28.333333333333332,0)" xlink:href="#at"/><use transform="matrix(0.06172839506172839,0,0,0.06172839506172839,34.50617283950617,0)" xlink:href="#am"/></g><path fill="#fff" d="M30-248c87 1 191-15 191 75 0 78-77 80-158 76V0H30v-248zm33 125c57 0 124 11 124-50 0-59-68-47-124-48v98" id="aO"/><g id="t"><use transform="matrix(0.06172839506172839,0,0,0.06172839506172839,0,0)" xlink:href="#aO"/><use transform="matrix(0.06172839506172839,0,0,0.06172839506172839,14.814814814814813,0)" xlink:href="#au"/><use transform="matrix(0.06172839506172839,0,0,0.06172839506172839,27.160493827160494,0)" xlink:href="#an"/><use transform="matrix(0.06172839506172839,0,0,0.06172839506172839,34.50617283950617,0)" xlink:href="#aw"/><use transform="matrix(0.06172839506172839,0,0,0.06172839506172839,46.85185185185185,0)" xlink:href="#aj"/><use transform="matrix(0.06172839506172839,0,0,0.06172839506172839,59.197530864197525,0)" xlink:href="#ao"/><use transform="matrix(0.06172839506172839,0,0,0.06172839506172839,71.5432098765432,0)" xlink:href="#at"/><use transform="matrix(0.06172839506172839,0,0,0.06172839506172839,77.71604938271604,0)" xlink:href="#am"/><use transform="matrix(0.06172839506172839,0,0,0.06172839506172839,90.06172839506172,0)" xlink:href="#ak"/></g><path fill="#fff" d="M63-220v92h138v28H63V0H30v-248h175v28H63" id="aP"/><path fill="#fff" d="M145-31C134-9 116 4 85 4 32 4 16-35 15-94c0-59 17-99 70-100 32-1 48 14 60 33 0-11-1-24 2-32h30l-1 268h-32zM93-21c41 0 51-33 51-76s-8-73-50-73c-40 0-46 35-46 75s5 74 45 74" id="aQ"/><g id="u"><use transform="matrix(0.06172839506172839,0,0,0.06172839506172839,0,0)" xlink:href="#aP"/><use transform="matrix(0.06172839506172839,0,0,0.06172839506172839,13.518518518518517,0)" xlink:href="#an"/><use transform="matrix(0.06172839506172839,0,0,0.06172839506172839,20.864197530864196,0)" xlink:href="#au"/><use transform="matrix(0.06172839506172839,0,0,0.06172839506172839,33.20987654320987,0)" xlink:href="#aQ"/><use transform="matrix(0.06172839506172839,0,0,0.06172839506172839,45.55555555555555,0)" xlink:href="#aj"/><use transform="matrix(0.06172839506172839,0,0,0.06172839506172839,57.90123456790123,0)" xlink:href="#au"/><use transform="matrix(0.06172839506172839,0,0,0.06172839506172839,70.24691358024691,0)" xlink:href="#ao"/><use transform="matrix(0.06172839506172839,0,0,0.06172839506172839,82.5925925925926,0)" xlink:href="#at"/><use transform="matrix(0.06172839506172839,0,0,0.06172839506172839,88.76543209876543,0)" xlink:href="#au"/><use transform="matrix(0.06172839506172839,0,0,0.06172839506172839,101.11111111111111,0)" xlink:href="#ak"/></g><path fill="#3a414a" d="M185-189c-5-48-123-54-124 2 14 75 158 14 163 119 3 78-121 87-175 55-17-10-28-26-33-46l33-7c5 56 141 63 141-1 0-78-155-14-162-118-5-82 145-84 179-34 5 7 8 16 11 25" id="aR"/><path fill="#3a414a" d="M84 4C-5 8 30-112 23-190h32v120c0 31 7 50 39 49 72-2 45-101 50-169h31l1 190h-30c-1-10 1-25-2-33-11 22-28 36-60 37" id="aS"/><path fill="#3a414a" d="M96-169c-40 0-48 33-48 73s9 75 48 75c24 0 41-14 43-38l32 2c-6 37-31 61-74 61-59 0-76-41-82-99-10-93 101-131 147-64 4 7 5 14 7 22l-32 3c-4-21-16-35-41-35zm3 187c19-1 33 8 33 26 0 31-30 33-64 32V58c18 2 39 4 41-13 1-15-18-13-34-13L87 0h19" id="aT"/><path fill="#3a414a" d="M141-36C126-15 110 5 73 4 37 3 15-17 15-53c-1-64 63-63 125-63 3-35-9-54-41-54-24 1-41 7-42 31l-33-3c5-37 33-52 76-52 45 0 72 20 72 64v82c-1 20 7 32 28 27v20c-31 9-61-2-59-35zM48-53c0 20 12 33 32 33 41-3 63-29 60-74-43 2-92-5-92 41zm117-205c-3 23-9 48-36 47-26-1-65-44-74 0H39c4-23 8-48 36-47s64 44 74 0h16" id="aU"/><g id="v"><use transform="matrix(0.05,0,0,0.05,0,0)" xlink:href="#aR"/><use transform="matrix(0.05,0,0,0.05,12,0)" xlink:href="#aI"/><use transform="matrix(0.05,0,0,0.05,22,0)" xlink:href="#aJ"/><use transform="matrix(0.05,0,0,0.05,25.950000000000003,0)" xlink:href="#aS"/><use transform="matrix(0.05,0,0,0.05,35.95,0)" xlink:href="#aT"/><use transform="matrix(0.05,0,0,0.05,44.95,0)" xlink:href="#aU"/><use transform="matrix(0.05,0,0,0.05,54.95,0)" xlink:href="#aI"/></g><path fill="#3a414a" d="M108 0H70L1-190h34L89-25l56-165h34" id="aV"/><g id="w"><use transform="matrix(0.05,0,0,0.05,0,0)" xlink:href="#aM"/><use transform="matrix(0.05,0,0,0.05,5.95,0)" xlink:href="#aL"/><use transform="matrix(0.05,0,0,0.05,15.949999999999998,0)" xlink:href="#aG"/><use transform="matrix(0.05,0,0,0.05,24.95,0)" xlink:href="#aI"/><use transform="matrix(0.05,0,0,0.05,34.95,0)" xlink:href="#aJ"/><use transform="matrix(0.05,0,0,0.05,38.900000000000006,0)" xlink:href="#aV"/><use transform="matrix(0.05,0,0,0.05,47.900000000000006,0)" xlink:href="#aL"/><use transform="matrix(0.05,0,0,0.05,57.900000000000006,0)" xlink:href="#aS"/></g><use transform="matrix(0.05,0,0,0.05,0,0)" xlink:href="#aI" id="x"/><path fill="#3a414a" d="M115-194c55 1 70 41 70 98S169 2 115 4C84 4 66-9 55-30l1 105H24l-1-265h31l2 30c10-21 28-34 59-34zm-8 174c40 0 45-34 45-75s-6-73-45-74c-42 0-51 32-51 76 0 43 10 73 51 73" id="aW"/><path fill="#3a414a" d="M115-194c53 0 69 39 70 98 0 66-23 100-70 100C84 3 66-7 56-30L54 0H23l1-261h32v101c10-23 28-34 59-34zm-8 174c40 0 45-34 45-75 0-40-5-75-45-74-42 0-51 32-51 76 0 43 10 73 51 73" id="aX"/><path fill="#3a414a" d="M210-169c-67 3-38 105-44 169h-31v-121c0-29-5-50-35-48C34-165 62-65 56 0H25l-1-190h30c1 10-1 24 2 32 10-44 99-50 107 0 11-21 27-35 58-36 85-2 47 119 55 194h-31v-121c0-29-5-49-35-48" id="aY"/><path fill="#3a414a" d="M141-36C126-15 110 5 73 4 37 3 15-17 15-53c-1-64 63-63 125-63 3-35-9-54-41-54-24 1-41 7-42 31l-33-3c5-37 33-52 76-52 45 0 72 20 72 64v82c-1 20 7 32 28 27v20c-31 9-61-2-59-35zM48-53c0 20 12 33 32 33 41-3 63-29 60-74-43 2-92-5-92 41" id="aZ"/><path fill="#3a414a" d="M103-251c84 0 111 97 45 133-19 10-37 24-39 52H78c0-63 77-55 77-114 0-30-21-42-52-43-32 0-53 17-56 46l-32-2c7-45 34-72 88-72zM77 0v-35h34V0H77" id="ba"/><g id="y"><use transform="matrix(0.05,0,0,0.05,0,0)" xlink:href="#aW"/><use transform="matrix(0.05,0,0,0.05,10,0)" xlink:href="#aM"/><use transform="matrix(0.05,0,0,0.05,15.949999999999998,0)" xlink:href="#aI"/><use transform="matrix(0.05,0,0,0.05,25.950000000000003,0)" xlink:href="#aX"/><use transform="matrix(0.05,0,0,0.05,35.95,0)" xlink:href="#aJ"/><use transform="matrix(0.05,0,0,0.05,39.900000000000006,0)" xlink:href="#aL"/><use transform="matrix(0.05,0,0,0.05,49.900000000000006,0)" xlink:href="#aY"/><use transform="matrix(0.05,0,0,0.05,64.85000000000001,0)" xlink:href="#aZ"/><use transform="matrix(0.05,0,0,0.05,74.85000000000001,0)" xlink:href="#ba"/></g><path fill="#fff" d="M185-189c-5-48-123-54-124 2 14 75 158 14 163 119 3 78-121 87-175 55-17-10-28-26-33-46l33-7c5 56 141 63 141-1 0-78-155-14-162-118-5-82 145-84 179-34 5 7 8 16 11 25" id="bb"/><path fill="#fff" d="M210-169c-67 3-38 105-44 169h-31v-121c0-29-5-50-35-48C34-165 62-65 56 0H25l-1-190h30c1 10-1 24 2 32 10-44 99-50 107 0 11-21 27-35 58-36 85-2 47 119 55 194h-31v-121c0-29-5-49-35-48" id="bc"/><g id="z"><use transform="matrix(0.05,0,0,0.05,0,0)" xlink:href="#bb"/><use transform="matrix(0.05,0,0,0.05,12,0)" xlink:href="#ar"/><use transform="matrix(0.05,0,0,0.05,15.949999999999998,0)" xlink:href="#bc"/></g><path fill="#fff" d="M190 0L58-211 59 0H30v-248h39L202-35l-2-213h31V0h-41" id="bd"/><path fill="#fff" d="M141-36C126-15 110 5 73 4 37 3 15-17 15-53c-1-64 63-63 125-63 3-35-9-54-41-54-24 1-41 7-42 31l-33-3c5-37 33-52 76-52 45 0 72 20 72 64v82c-1 20 7 32 28 27v20c-31 9-61-2-59-35zM48-53c0 20 12 33 32 33 41-3 63-29 60-74-43 2-92-5-92 41zm117-205c-3 23-9 48-36 47-26-1-65-44-74 0H39c4-23 8-48 36-47s64 44 74 0h16" id="be"/><g id="A"><use transform="matrix(0.05,0,0,0.05,0,0)" xlink:href="#bd"/><use transform="matrix(0.05,0,0,0.05,12.950000000000001,0)" xlink:href="#be"/><use transform="matrix(0.05,0,0,0.05,22.950000000000003,0)" xlink:href="#aB"/></g><g id="B"><use transform="matrix(0.06172839506172839,0,0,0.06172839506172839,0,0)" xlink:href="#aO"/><use transform="matrix(0.06172839506172839,0,0,0.06172839506172839,14.814814814814813,0)" xlink:href="#au"/><use transform="matrix(0.06172839506172839,0,0,0.06172839506172839,27.160493827160494,0)" xlink:href="#an"/><use transform="matrix(0.06172839506172839,0,0,0.06172839506172839,34.50617283950617,0)" xlink:href="#aw"/><use transform="matrix(0.06172839506172839,0,0,0.06172839506172839,46.85185185185185,0)" xlink:href="#aj"/><use transform="matrix(0.06172839506172839,0,0,0.06172839506172839,59.197530864197525,0)" xlink:href="#ao"/><use transform="matrix(0.06172839506172839,0,0,0.06172839506172839,71.5432098765432,0)" xlink:href="#at"/><use transform="matrix(0.06172839506172839,0,0,0.06172839506172839,77.71604938271604,0)" xlink:href="#am"/></g><g id="C"><use transform="matrix(0.06172839506172839,0,0,0.06172839506172839,0,0)" xlink:href="#ak"/><use transform="matrix(0.06172839506172839,0,0,0.06172839506172839,11.11111111111111,0)" xlink:href="#au"/><use transform="matrix(0.06172839506172839,0,0,0.06172839506172839,23.45679012345679,0)" xlink:href="#av"/><use transform="matrix(0.06172839506172839,0,0,0.06172839506172839,28.333333333333336,0)" xlink:href="#au"/><use transform="matrix(0.06172839506172839,0,0,0.06172839506172839,40.67901234567901,0)" xlink:href="#al"/><use transform="matrix(0.06172839506172839,0,0,0.06172839506172839,51.79012345679013,0)" xlink:href="#ar"/><use transform="matrix(0.06172839506172839,0,0,0.06172839506172839,56.66666666666667,0)" xlink:href="#aB"/><use transform="matrix(0.06172839506172839,0,0,0.06172839506172839,69.01234567901236,0)" xlink:href="#ao"/><use transform="matrix(0.06172839506172839,0,0,0.06172839506172839,81.35802469135804,0)" xlink:href="#am"/><use transform="matrix(0.06172839506172839,0,0,0.06172839506172839,93.70370370370372,0)" xlink:href="#ay"/><use transform="matrix(0.06172839506172839,0,0,0.06172839506172839,106.04938271604941,0)" xlink:href="#am"/></g><path fill="#3a414a" d="M141 0L90-78 38 0H4l68-98-65-92h35l48 74 47-74h35l-64 92 68 98h-35" id="bf"/><path fill="#3a414a" d="M24-231v-30h32v30H24zM24 0v-190h32V0H24" id="bg"/><g id="D"><use transform="matrix(0.05,0,0,0.05,0,0)" xlink:href="#aF"/><use transform="matrix(0.05,0,0,0.05,12,0)" xlink:href="#bf"/><use transform="matrix(0.05,0,0,0.05,21,0)" xlink:href="#bg"/><use transform="matrix(0.05,0,0,0.05,24.95,0)" xlink:href="#aX"/><use transform="matrix(0.05,0,0,0.05,34.95,0)" xlink:href="#bg"/><use transform="matrix(0.05,0,0,0.05,38.900000000000006,0)" xlink:href="#aM"/></g><path fill="#3a414a" d="M59-47c-2 24 18 29 38 22v24C64 9 27 4 27-40v-127H5v-23h24l9-43h21v43h35v23H59v120" id="bh"/><g id="E"><use transform="matrix(0.05,0,0,0.05,0,0)" xlink:href="#aW"/><use transform="matrix(0.05,0,0,0.05,10,0)" xlink:href="#aM"/><use transform="matrix(0.05,0,0,0.05,15.949999999999998,0)" xlink:href="#aI"/><use transform="matrix(0.05,0,0,0.05,25.950000000000003,0)" xlink:href="#aY"/><use transform="matrix(0.05,0,0,0.05,40.9,0)" xlink:href="#aW"/><use transform="matrix(0.05,0,0,0.05,50.9,0)" xlink:href="#bh"/></g><g id="F"><use transform="matrix(0.05,0,0,0.05,0,0)" xlink:href="#aH"/><use transform="matrix(0.05,0,0,0.05,9,0)" xlink:href="#aI"/><use transform="matrix(0.05,0,0,0.05,19,0)" xlink:href="#aY"/></g><path fill="#3a414a" d="M34 0v-190h32V0H34zM24-211c8-23 27-35 38-54h36v5l-58 49H24" id="bi"/><g id="G"><use transform="matrix(0.05,0,0,0.05,0,0)" xlink:href="#aW"/><use transform="matrix(0.05,0,0,0.05,10,0)" xlink:href="#aI"/><use transform="matrix(0.05,0,0,0.05,20,0)" xlink:href="#aG"/><use transform="matrix(0.05,0,0,0.05,29,0)" xlink:href="#aG"/><use transform="matrix(0.05,0,0,0.05,38,0)" xlink:href="#bi"/><use transform="matrix(0.05,0,0,0.05,43,0)" xlink:href="#aV"/><use transform="matrix(0.05,0,0,0.05,52,0)" xlink:href="#aL"/><use transform="matrix(0.05,0,0,0.05,62,0)" xlink:href="#aJ"/></g><g id="H"><use transform="matrix(0.05,0,0,0.05,0,0)" xlink:href="#aG"/><use transform="matrix(0.05,0,0,0.05,9,0)" xlink:href="#aI"/><use transform="matrix(0.05,0,0,0.05,19,0)" xlink:href="#aJ"/><use transform="matrix(0.05,0,0,0.05,22.95,0)" xlink:href="#aS"/><use transform="matrix(0.05,0,0,0.05,32.95,0)" xlink:href="#aT"/><use transform="matrix(0.05,0,0,0.05,41.95,0)" xlink:href="#aU"/><use transform="matrix(0.05,0,0,0.05,51.95,0)" xlink:href="#aI"/></g><g id="I"><use transform="matrix(0.06172839506172839,0,0,0.06172839506172839,0,0)" xlink:href="#aP"/><use transform="matrix(0.06172839506172839,0,0,0.06172839506172839,13.518518518518517,0)" xlink:href="#ar"/><use transform="matrix(0.06172839506172839,0,0,0.06172839506172839,18.39506172839506,0)" xlink:href="#bc"/></g><path fill="#3a414a" d="M205 0l-28-72H64L36 0H1l101-248h38L239 0h-34zm-38-99l-47-123c-12 45-31 82-46 123h93" id="bj"/><g id="J"><use transform="matrix(0.05,0,0,0.05,0,0)" xlink:href="#bj"/><use transform="matrix(0.05,0,0,0.05,12,0)" xlink:href="#aX"/><use transform="matrix(0.05,0,0,0.05,22,0)" xlink:href="#aM"/><use transform="matrix(0.05,0,0,0.05,27.950000000000003,0)" xlink:href="#bg"/><use transform="matrix(0.05,0,0,0.05,31.899999999999995,0)" xlink:href="#aM"/></g><path fill="#3a414a" d="M85-194c31 0 48 13 60 33l-1-100h32l1 261h-30c-2-10 0-23-3-31C134-8 116 4 85 4 32 4 16-35 15-94c0-66 23-100 70-100zm9 24c-40 0-46 34-46 75 0 40 6 74 45 74 42 0 51-32 51-76 0-42-9-74-50-73" id="bk"/><g id="K"><use transform="matrix(0.05,0,0,0.05,0,0)" xlink:href="#bk"/><use transform="matrix(0.05,0,0,0.05,10,0)" xlink:href="#aL"/></g><path fill="#3a414a" d="M212-179c-10-28-35-45-73-45-59 0-87 40-87 99 0 60 29 101 89 101 43 0 62-24 78-52l27 14C228-24 195 4 139 4 59 4 22-46 18-125c-6-104 99-153 187-111 19 9 31 26 39 46" id="bl"/><g id="L"><use transform="matrix(0.05,0,0,0.05,0,0)" xlink:href="#bl"/><use transform="matrix(0.05,0,0,0.05,12.950000000000001,0)" xlink:href="#aK"/><use transform="matrix(0.05,0,0,0.05,22.950000000000003,0)" xlink:href="#aZ"/><use transform="matrix(0.05,0,0,0.05,32.95,0)" xlink:href="#aY"/><use transform="matrix(0.05,0,0,0.05,47.900000000000006,0)" xlink:href="#aZ"/><use transform="matrix(0.05,0,0,0.05,57.900000000000006,0)" xlink:href="#bk"/><use transform="matrix(0.05,0,0,0.05,67.9,0)" xlink:href="#aI"/></g><path fill="#3a414a" d="M30-248c87 1 191-15 191 75 0 78-77 80-158 76V0H30v-248zm33 125c57 0 124 11 124-50 0-59-68-47-124-48v98" id="bm"/><path fill="#3a414a" d="M177-190C167-65 218 103 67 71c-23-6-38-20-44-43l32-5c15 47 100 32 89-28v-30C133-14 115 1 83 1 29 1 15-40 15-95c0-56 16-97 71-98 29-1 48 16 59 35 1-10 0-23 2-32h30zM94-22c36 0 50-32 50-73 0-42-14-75-50-75-39 0-46 34-46 75s6 73 46 73" id="bn"/><path fill="#3a414a" d="M117-194c89-4 53 116 60 194h-32v-121c0-31-8-49-39-48C34-167 62-67 57 0H25l-1-190h30c1 10-1 24 2 32 11-22 29-35 61-36" id="bo"/><g id="M"><use transform="matrix(0.05,0,0,0.05,0,0)" xlink:href="#bm"/><use transform="matrix(0.05,0,0,0.05,12,0)" xlink:href="#aL"/><use transform="matrix(0.05,0,0,0.05,22,0)" xlink:href="#aM"/><use transform="matrix(0.05,0,0,0.05,27.950000000000003,0)" xlink:href="#bn"/><use transform="matrix(0.05,0,0,0.05,37.95,0)" xlink:href="#aS"/><use transform="matrix(0.05,0,0,0.05,47.95,0)" xlink:href="#bo"/><use transform="matrix(0.05,0,0,0.05,57.95,0)" xlink:href="#bh"/><use transform="matrix(0.05,0,0,0.05,62.95,0)" xlink:href="#aZ"/></g><g id="N"><use transform="matrix(0.05,0,0,0.05,0,0)" xlink:href="#aF"/><use transform="matrix(0.05,0,0,0.05,12,0)" xlink:href="#bo"/><use transform="matrix(0.05,0,0,0.05,22,0)" xlink:href="#aH"/><use transform="matrix(0.05,0,0,0.05,31,0)" xlink:href="#aI"/><use transform="matrix(0.05,0,0,0.05,41,0)" xlink:href="#bo"/><use transform="matrix(0.05,0,0,0.05,51,0)" xlink:href="#bh"/><use transform="matrix(0.05,0,0,0.05,56,0)" xlink:href="#aM"/><use transform="matrix(0.05,0,0,0.05,61.95,0)" xlink:href="#aZ"/><use transform="matrix(0.05,0,0,0.05,71.95,0)" xlink:href="#bk"/><use transform="matrix(0.05,0,0,0.05,81.95,0)" xlink:href="#aZ"/><use transform="matrix(0.05,0,0,0.05,91.95,0)" xlink:href="#ba"/></g><path fill="#3a414a" d="M137 0h-34L2-248h35l83 218 83-218h36" id="bp"/><path fill="#3a414a" d="M101-234c-31-9-42 10-38 44h38v23H63V0H32v-167H5v-23h27c-7-52 17-82 69-68v24" id="bq"/><g id="O"><use transform="matrix(0.05,0,0,0.05,0,0)" xlink:href="#bp"/><use transform="matrix(0.05,0,0,0.05,11,0)" xlink:href="#aL"/><use transform="matrix(0.05,0,0,0.05,21,0)" xlink:href="#aM"/><use transform="matrix(0.05,0,0,0.05,26.950000000000003,0)" xlink:href="#bg"/><use transform="matrix(0.05,0,0,0.05,30.899999999999995,0)" xlink:href="#bq"/><use transform="matrix(0.05,0,0,0.05,35.9,0)" xlink:href="#bg"/><use transform="matrix(0.05,0,0,0.05,39.85,0)" xlink:href="#aH"/><use transform="matrix(0.05,0,0,0.05,48.85,0)" xlink:href="#aZ"/></g><g id="P"><use transform="matrix(0.05,0,0,0.05,0,0)" xlink:href="#bm"/><use transform="matrix(0.05,0,0,0.05,12,0)" xlink:href="#aL"/><use transform="matrix(0.05,0,0,0.05,22,0)" xlink:href="#aM"/><use transform="matrix(0.05,0,0,0.05,27.950000000000003,0)" xlink:href="#bn"/><use transform="matrix(0.05,0,0,0.05,37.95,0)" xlink:href="#aS"/><use transform="matrix(0.05,0,0,0.05,47.95,0)" xlink:href="#bo"/><use transform="matrix(0.05,0,0,0.05,57.95,0)" xlink:href="#bh"/><use transform="matrix(0.05,0,0,0.05,62.95,0)" xlink:href="#aZ"/></g><g id="R"><use transform="matrix(0.05,0,0,0.05,0,0)" xlink:href="#bo"/><use transform="matrix(0.05,0,0,0.05,10,0)" xlink:href="#aZ"/></g><path fill="#3a414a" d="M160-131c35 5 61 23 61 61C221 17 115-2 30 0v-248c76 3 177-17 177 60 0 33-19 50-47 57zm-97-11c50-1 110 9 110-42 0-47-63-36-110-37v79zm0 115c55-2 124 14 124-45 0-56-70-42-124-44v89" id="br"/><g id="S"><use transform="matrix(0.05,0,0,0.05,0,0)" xlink:href="#br"/><use transform="matrix(0.05,0,0,0.05,12,0)" xlink:href="#aZ"/><use transform="matrix(0.05,0,0,0.05,22,0)" xlink:href="#aG"/><use transform="matrix(0.05,0,0,0.05,31,0)" xlink:href="#aL"/></g><path fill="#3a414a" d="M30-248c118-7 216 8 213 122C240-48 200 0 122 0H30v-248zM63-27c89 8 146-16 146-99s-60-101-146-95v194" id="bs"/><g id="T"><use transform="matrix(0.05,0,0,0.05,0,0)" xlink:href="#bs"/><use transform="matrix(0.05,0,0,0.05,12.950000000000001,0)" xlink:href="#aZ"/><use transform="matrix(0.05,0,0,0.05,22.950000000000003,0)" xlink:href="#bk"/><use transform="matrix(0.05,0,0,0.05,32.95,0)" xlink:href="#aI"/><use transform="matrix(0.05,0,0,0.05,42.95,0)" xlink:href="#aG"/></g><g id="U"><use transform="matrix(0.05,0,0,0.05,0,0)" xlink:href="#aD"/><use transform="matrix(0.05,0,0,0.05,12.950000000000001,0)" xlink:href="#ak"/><use transform="matrix(0.05,0,0,0.05,21.950000000000003,0)" xlink:href="#aj"/><use transform="matrix(0.05,0,0,0.05,31.950000000000003,0)" xlink:href="#aE"/><use transform="matrix(0.05,0,0,0.05,41.95,0)" xlink:href="#an"/><use transform="matrix(0.05,0,0,0.05,47.900000000000006,0)" xlink:href="#ar"/><use transform="matrix(0.05,0,0,0.05,51.85,0)" xlink:href="#aB"/></g></defs></g></svg>