<svg width="90" height="47" viewBox="0 0 90 47" fill="none" xmlns="http://www.w3.org/2000/svg">
<g clip-path="url(#clip0_13_11)">
<path d="M87.12 28.2148C85.536 28.2148 84.24 29.5306 84.24 31.1386C84.24 32.7467 85.536 34.0624 87.12 34.0624C88.704 34.0624 90 32.7467 90 31.1386C90 29.5306 88.704 28.2148 87.12 28.2148ZM87.12 33.4777C85.824 33.4777 84.816 32.3813 84.816 31.1386C84.816 29.8229 85.896 28.7996 87.12 28.7996C88.416 28.7996 89.424 29.896 89.424 31.1386C89.496 32.3813 88.416 33.4777 87.12 33.4777Z" fill="white"/>
<path d="M86.6159 30.8461H86.9759C87.1919 30.8461 87.3359 30.8461 87.4079 30.8461C87.4799 30.8461 87.4799 30.773 87.5519 30.773C87.6239 30.6999 87.6239 30.6268 87.6239 30.5537C87.6239 30.4806 87.6239 30.4075 87.5519 30.3344C87.4799 30.2613 87.4079 30.2613 87.3359 30.2613C87.2639 30.2613 87.1919 30.2613 86.9759 30.2613H86.5439V30.8461H86.6159ZM86.1119 32.3811V29.8228H87.1919C87.4799 29.8228 87.6239 29.8228 87.7679 29.8959C87.9119 29.9689 87.9839 30.042 88.0559 30.1151C88.1279 30.2613 88.1999 30.3344 88.1999 30.5537C88.1999 30.773 88.1279 30.9192 88.0559 31.0654C87.9119 31.2116 87.7679 31.2847 87.5519 31.2847C87.6239 31.3577 87.7679 31.4308 87.8399 31.5039C87.9119 31.577 87.9839 31.7232 88.1279 31.9425L88.4159 32.4542H87.8399L87.4799 31.8694C87.3359 31.6501 87.2639 31.577 87.1919 31.5039C87.1199 31.4308 87.1199 31.4308 87.0479 31.4308C86.9759 31.4308 86.9039 31.4308 86.7599 31.4308H86.6879V32.5273L86.1119 32.3811Z" fill="white"/>
<path d="M61.128 0.29248C61.776 0.29248 62.3519 0.804145 62.3519 1.53509C62.3519 2.19295 61.848 2.77771 61.128 2.77771C60.48 2.70461 59.976 2.19295 59.976 1.462C59.976 0.804145 60.48 0.29248 61.128 0.29248Z" fill="white"/>
<path d="M60.912 25.0718C61.56 25.0718 62.136 25.5834 62.136 26.3144C62.136 26.9722 61.632 27.557 60.912 27.557C60.264 27.557 59.688 27.0453 59.688 26.3144C59.76 25.5834 60.264 25.0718 60.912 25.0718Z" fill="white"/>
<path d="M63.648 18.8584C64.296 18.8584 64.872 19.4432 64.872 20.101C64.872 20.7589 64.368 21.3436 63.648 21.3436C63 21.3436 62.424 20.7589 62.424 20.101C62.496 19.4432 63 18.8584 63.648 18.8584Z" fill="white"/>
<path d="M62.856 21.9287C63.504 21.9287 64.08 22.4404 64.08 23.1713C64.08 23.8292 63.576 24.4139 62.856 24.4139C62.208 24.4139 61.632 23.8292 61.632 23.1713C61.632 22.5135 62.136 21.9287 62.856 21.9287Z" fill="white"/>
<path d="M61.272 12.6455C61.92 12.6455 62.496 13.1572 62.496 13.8881C62.496 14.546 61.992 15.1307 61.272 15.1307C60.624 15.1307 60.048 14.6191 60.048 13.8881C60.12 13.2303 60.624 12.6455 61.272 12.6455Z" fill="white"/>
<path d="M63.1439 15.7886C63.7919 15.7886 64.3679 16.3733 64.3679 17.0312C64.3679 17.689 63.8639 18.2738 63.1439 18.2738C62.4959 18.2738 61.9199 17.7621 61.9199 17.0312C61.9199 16.3002 62.4239 15.7886 63.1439 15.7886Z" fill="white"/>
<path d="M58.6799 6.50537C59.3279 6.50537 59.9039 7.01704 59.9039 7.74798C59.9039 8.40584 59.3999 8.9906 58.6799 8.9906C58.0319 8.9906 57.4559 8.47893 57.4559 7.74798C57.4559 7.01704 58.0319 6.50537 58.6799 6.50537Z" fill="white"/>
<path d="M59.3999 3.3623C60.0479 3.3623 60.6239 3.87397 60.6239 4.60492C60.6239 5.26277 60.1199 5.84753 59.3999 5.84753C58.7519 5.84753 58.1759 5.33587 58.1759 4.60492C58.2479 3.94706 58.7519 3.3623 59.3999 3.3623Z" fill="white"/>
<path d="M59.1119 9.57568C59.7599 9.57568 60.3359 10.0873 60.3359 10.8183C60.3359 11.4762 59.8319 12.0609 59.1119 12.0609C58.4639 12.0609 57.8879 11.4762 57.8879 10.8183C57.9599 10.1604 58.4639 9.57568 59.1119 9.57568Z" fill="white"/>
<path d="M56.2319 1.46219C56.2319 2.26624 56.8799 2.92409 57.5999 2.92409C58.3199 2.92409 58.9679 2.26624 58.9679 1.53529C58.9679 0.731243 58.3199 0.146484 57.5999 0.146484C56.8799 0.146484 56.2319 0.731243 56.2319 1.46219ZM56.5919 1.46219C56.5919 0.877433 57.0239 0.438864 57.5999 0.438864C58.1759 0.438864 58.6079 0.877433 58.6079 1.46219C58.6079 2.04695 58.1759 2.48552 57.5999 2.48552C57.0239 2.55861 56.5919 2.04695 56.5919 1.46219Z" fill="white"/>
<path d="M56.0159 26.3143C56.0159 27.1183 56.6639 27.7031 57.3839 27.7031C58.1759 27.7031 58.7519 27.0452 58.7519 26.3143C58.7519 25.5102 58.1039 24.9255 57.3839 24.9255C56.6639 24.8524 56.0159 25.5102 56.0159 26.3143ZM56.3759 26.3143C56.3759 25.7295 56.8079 25.291 57.3839 25.291C57.9599 25.291 58.3919 25.7295 58.3919 26.3143C58.3919 26.899 57.9599 27.3376 57.3839 27.3376C56.8079 27.3376 56.3759 26.8259 56.3759 26.3143Z" fill="white"/>
<path d="M63.0719 26.3143C63.0719 27.1183 63.7199 27.7031 64.4399 27.7031C65.2319 27.7031 65.8079 27.0452 65.8079 26.3143C65.8079 25.5102 65.1599 24.9255 64.4399 24.9255C63.7199 24.8524 63.0719 25.5102 63.0719 26.3143ZM63.4319 26.3143C63.4319 25.7295 63.8639 25.291 64.4399 25.291C65.0159 25.291 65.4479 25.7295 65.4479 26.3143C65.4479 26.899 65.0159 27.3376 64.4399 27.3376C63.9359 27.3376 63.4319 26.8259 63.4319 26.3143Z" fill="white"/>
<path d="M63.288 1.46204C63.288 2.26609 63.936 2.85085 64.656 2.85085C65.448 2.85085 66.024 2.19299 66.024 1.46204C66.024 0.658001 65.376 0.0732422 64.656 0.0732422C63.936 0.0732422 63.288 0.731096 63.288 1.46204ZM63.648 1.46204C63.648 0.877286 64.08 0.438717 64.656 0.438717C65.232 0.438717 65.664 0.877286 65.664 1.46204C65.664 2.0468 65.232 2.48537 64.656 2.48537C64.152 2.55847 63.648 2.0468 63.648 1.46204Z" fill="white"/>
<path d="M48.168 20.1012C48.168 20.9052 48.816 21.49 49.536 21.49C50.328 21.49 50.904 20.8322 50.904 20.1012C50.904 19.2972 50.256 18.7124 49.536 18.7124C48.744 18.7124 48.168 19.2972 48.168 20.1012ZM48.528 20.1012C48.528 19.5164 48.96 19.0779 49.536 19.0779C50.112 19.0779 50.544 19.5164 50.544 20.1012C50.544 20.686 50.112 21.1245 49.536 21.1245C48.96 21.1245 48.528 20.686 48.528 20.1012Z" fill="white"/>
<path d="M51.6959 20.1012C51.6959 20.9052 52.3439 21.49 53.0639 21.49C53.8559 21.49 54.4319 20.8322 54.4319 20.1012C54.4319 19.2972 53.7839 18.7124 53.0639 18.7124C52.2719 18.7124 51.6959 19.2972 51.6959 20.1012ZM52.0559 20.1012C52.0559 19.5164 52.4879 19.0779 53.0639 19.0779C53.6399 19.0779 54.0719 19.5164 54.0719 20.1012C54.0719 20.686 53.6399 21.1245 53.0639 21.1245C52.4879 21.1245 52.0559 20.686 52.0559 20.1012Z" fill="white"/>
<path d="M55.2239 20.1012C55.2239 20.9052 55.8719 21.49 56.5919 21.49C57.3839 21.49 57.9599 20.8322 57.9599 20.1012C57.9599 19.2972 57.3119 18.7124 56.5919 18.7124C55.8719 18.7124 55.2239 19.2972 55.2239 20.1012ZM55.5839 20.1012C55.5839 19.5164 56.0159 19.0779 56.5919 19.0779C57.1679 19.0779 57.5999 19.5164 57.5999 20.1012C57.5999 20.686 57.1679 21.1245 56.5919 21.1245C56.0159 21.1245 55.5839 20.686 55.5839 20.1012Z" fill="white"/>
<path d="M58.752 20.1012C58.752 20.9052 59.4 21.49 60.12 21.49C60.912 21.49 61.488 20.8322 61.488 20.1012C61.488 19.2972 60.84 18.7124 60.12 18.7124C59.4 18.7124 58.752 19.2972 58.752 20.1012ZM59.112 20.1012C59.112 19.5164 59.544 19.0779 60.12 19.0779C60.696 19.0779 61.128 19.5164 61.128 20.1012C61.128 20.686 60.696 21.1245 60.12 21.1245C59.544 21.1245 59.112 20.686 59.112 20.1012Z" fill="white"/>
<path d="M65.8079 20.1012C65.8079 20.9052 66.4559 21.49 67.1759 21.49C67.9679 21.49 68.5439 20.8322 68.5439 20.1012C68.5439 19.2972 67.8959 18.7124 67.1759 18.7124C66.4559 18.7124 65.8079 19.2972 65.8079 20.1012ZM66.1679 20.1012C66.1679 19.5164 66.5999 19.0779 67.1759 19.0779C67.7519 19.0779 68.1839 19.5164 68.1839 20.1012C68.1839 20.686 67.7519 21.1245 67.1759 21.1245C66.6719 21.1245 66.1679 20.686 66.1679 20.1012Z" fill="white"/>
<path d="M69.3359 20.1012C69.3359 20.9052 69.9839 21.49 70.7039 21.49C71.4959 21.49 72.0719 20.8322 72.0719 20.1012C72.0719 19.2972 71.4239 18.7124 70.7039 18.7124C69.9839 18.7124 69.3359 19.2972 69.3359 20.1012ZM69.6959 20.1012C69.6959 19.5164 70.1279 19.0779 70.7039 19.0779C71.2799 19.0779 71.7119 19.5164 71.7119 20.1012C71.7119 20.686 71.2799 21.1245 70.7039 21.1245C70.1999 21.1245 69.6959 20.686 69.6959 20.1012Z" fill="white"/>
<path d="M50.8319 23.171C50.8319 23.9751 51.4799 24.5598 52.1999 24.5598C52.9919 24.5598 53.5679 23.902 53.5679 23.171C53.5679 22.367 52.9199 21.7822 52.1999 21.7822C51.4799 21.7822 50.8319 22.4401 50.8319 23.171ZM51.1919 23.171C51.1919 22.5863 51.6239 22.1477 52.1999 22.1477C52.7759 22.1477 53.2079 22.5863 53.2079 23.171C53.2079 23.7558 52.7759 24.1944 52.1999 24.1944C51.6959 24.2675 51.1919 23.7558 51.1919 23.171Z" fill="white"/>
<path d="M54.3599 23.171C54.3599 23.9751 55.0079 24.5598 55.7279 24.5598C56.5199 24.5598 57.0959 23.902 57.0959 23.171C57.0959 22.367 56.4479 21.7822 55.7279 21.7822C55.0079 21.7822 54.3599 22.4401 54.3599 23.171ZM54.7199 23.171C54.7199 22.5863 55.1519 22.1477 55.7279 22.1477C56.3039 22.1477 56.7359 22.5863 56.7359 23.171C56.7359 23.7558 56.3039 24.1944 55.7279 24.1944C55.2239 24.2675 54.7199 23.7558 54.7199 23.171Z" fill="white"/>
<path d="M57.8879 23.171C57.8879 23.9751 58.5359 24.5598 59.2559 24.5598C60.0479 24.5598 60.6239 23.902 60.6239 23.171C60.6239 22.367 59.9759 21.7822 59.2559 21.7822C58.5359 21.7822 57.8879 22.4401 57.8879 23.171ZM58.2479 23.171C58.2479 22.5863 58.6799 22.1477 59.2559 22.1477C59.8319 22.1477 60.2639 22.5863 60.2639 23.171C60.2639 23.7558 59.8319 24.1944 59.2559 24.1944C58.7519 24.2675 58.2479 23.7558 58.2479 23.171Z" fill="white"/>
<path d="M65.0159 23.171C65.0159 23.9751 65.6639 24.5598 66.3839 24.5598C67.1759 24.5598 67.7519 23.902 67.7519 23.171C67.7519 22.367 67.1039 21.7822 66.3839 21.7822C65.5919 21.7822 65.0159 22.4401 65.0159 23.171ZM65.3759 23.171C65.3759 22.5863 65.8079 22.1477 66.3839 22.1477C66.9599 22.1477 67.3919 22.5863 67.3919 23.171C67.3919 23.7558 66.9599 24.1944 66.3839 24.1944C65.8079 24.2675 65.3759 23.7558 65.3759 23.171Z" fill="white"/>
<path d="M68.5439 23.171C68.5439 23.9751 69.1919 24.5598 69.9119 24.5598C70.7039 24.5598 71.2799 23.902 71.2799 23.171C71.2799 22.367 70.6319 21.7822 69.9119 21.7822C69.1199 21.7822 68.5439 22.4401 68.5439 23.171ZM68.9039 23.171C68.9039 22.5863 69.3359 22.1477 69.9119 22.1477C70.4879 22.1477 70.9199 22.5863 70.9199 23.171C70.9199 23.7558 70.4879 24.1944 69.9119 24.1944C69.3359 24.2675 68.9039 23.7558 68.9039 23.171Z" fill="white"/>
<path d="M49.3199 13.8883C49.3199 14.6924 49.9679 15.2771 50.6879 15.2771C51.4799 15.2771 52.0559 14.6193 52.0559 13.8883C52.0559 13.0843 51.4079 12.4995 50.6879 12.4995C49.8959 12.4995 49.3199 13.1574 49.3199 13.8883ZM49.6799 13.8883C49.6799 13.3036 50.1119 12.865 50.6879 12.865C51.2639 12.865 51.6959 13.3036 51.6959 13.8883C51.6959 14.4731 51.2639 14.9116 50.6879 14.9116C50.1119 14.9116 49.6799 14.4731 49.6799 13.8883Z" fill="white"/>
<path d="M52.8479 13.8883C52.8479 14.6924 53.4959 15.2771 54.2159 15.2771C55.0079 15.2771 55.5839 14.6193 55.5839 13.8883C55.5839 13.0843 54.9359 12.4995 54.2159 12.4995C53.4959 12.4995 52.8479 13.1574 52.8479 13.8883ZM53.2079 13.8883C53.2079 13.3036 53.6399 12.865 54.2159 12.865C54.7919 12.865 55.2239 13.3036 55.2239 13.8883C55.2239 14.4731 54.7919 14.9116 54.2159 14.9116C53.6399 14.9116 53.2079 14.4731 53.2079 13.8883Z" fill="white"/>
<path d="M56.3759 13.8883C56.3759 14.6924 57.0239 15.2771 57.7439 15.2771C58.5359 15.2771 59.1119 14.6193 59.1119 13.8883C59.1119 13.0843 58.4639 12.4995 57.7439 12.4995C57.0239 12.4995 56.3759 13.1574 56.3759 13.8883ZM56.7359 13.8883C56.7359 13.3036 57.1679 12.865 57.7439 12.865C58.3199 12.865 58.7519 13.3036 58.7519 13.8883C58.7519 14.4731 58.3199 14.9116 57.7439 14.9116C57.1679 14.9116 56.7359 14.4731 56.7359 13.8883Z" fill="white"/>
<path d="M63.4319 13.8883C63.4319 14.6924 64.0799 15.2771 64.7999 15.2771C65.5919 15.2771 66.1679 14.6193 66.1679 13.8883C66.1679 13.0843 65.5199 12.4995 64.7999 12.4995C64.0799 12.4995 63.4319 13.1574 63.4319 13.8883ZM63.7919 13.8883C63.7919 13.3036 64.2239 12.865 64.7999 12.865C65.3759 12.865 65.8079 13.3036 65.8079 13.8883C65.8079 14.4731 65.3759 14.9116 64.7999 14.9116C64.2239 14.9116 63.7919 14.4731 63.7919 13.8883Z" fill="white"/>
<path d="M66.96 13.8883C66.96 14.6924 67.608 15.2771 68.328 15.2771C69.12 15.2771 69.696 14.6193 69.696 13.8883C69.696 13.0843 69.048 12.4995 68.328 12.4995C67.608 12.4995 66.96 13.1574 66.96 13.8883ZM67.32 13.8883C67.32 13.3036 67.752 12.865 68.328 12.865C68.904 12.865 69.336 13.3036 69.336 13.8883C69.336 14.4731 68.904 14.9116 68.328 14.9116C67.824 14.9116 67.32 14.4731 67.32 13.8883Z" fill="white"/>
<path d="M70.4879 13.8883C70.4879 14.6924 71.1359 15.2771 71.8559 15.2771C72.6479 15.2771 73.2239 14.6193 73.2239 13.8883C73.2239 13.0843 72.5759 12.4995 71.8559 12.4995C71.1359 12.4995 70.4879 13.1574 70.4879 13.8883ZM70.8479 13.8883C70.8479 13.3036 71.2799 12.865 71.8559 12.865C72.4319 12.865 72.8639 13.3036 72.8639 13.8883C72.8639 14.4731 72.4319 14.9116 71.8559 14.9116C71.3519 14.9116 70.8479 14.4731 70.8479 13.8883Z" fill="white"/>
<path d="M48.0239 16.0079C47.7359 16.3003 47.5919 16.5927 47.5919 17.0312C47.5919 17.8353 48.2399 18.42 48.9599 18.42C49.7519 18.42 50.3279 17.7622 50.3279 17.0312C50.3279 16.6658 50.1839 16.3003 49.8959 16.0079C49.6079 15.7155 49.3199 15.5693 48.8879 15.5693C48.5999 15.5693 48.2399 15.7155 48.0239 16.0079ZM47.9519 16.9581C47.9519 16.6658 48.0239 16.4465 48.2399 16.2272C48.4559 16.0079 48.6719 15.9348 48.9599 15.9348C49.2479 15.9348 49.4639 16.0079 49.6799 16.2272C49.8959 16.4465 49.9679 16.6658 49.9679 16.9581C49.9679 17.5429 49.5359 17.9815 48.9599 17.9815C48.3839 18.0546 47.9519 17.5429 47.9519 16.9581Z" fill="white"/>
<path d="M51.5519 16.0079C51.2639 16.3003 51.1199 16.5927 51.1199 17.0312C51.1199 17.8353 51.7679 18.42 52.4879 18.42C53.2799 18.42 53.8559 17.7622 53.8559 17.0312C53.8559 16.6658 53.7119 16.3003 53.4239 16.0079C53.1359 15.7155 52.8479 15.5693 52.4159 15.5693C52.1279 15.5693 51.7679 15.7155 51.5519 16.0079ZM51.4799 16.9581C51.4799 16.6658 51.5519 16.4465 51.7679 16.2272C51.9839 16.0079 52.1999 15.9348 52.4879 15.9348C52.7759 15.9348 52.9919 16.0079 53.2079 16.2272C53.4239 16.4465 53.4959 16.6658 53.4959 16.9581C53.4959 17.5429 53.0639 17.9815 52.4879 17.9815C51.9839 18.0546 51.4799 17.5429 51.4799 16.9581Z" fill="white"/>
<path d="M55.0799 16.0081C54.7919 16.3005 54.6479 16.5929 54.6479 17.0315C54.6479 17.8355 55.296 18.4203 56.016 18.4203C56.808 18.4203 57.3839 17.7624 57.3839 17.0315C57.3839 16.2274 56.736 15.6427 56.016 15.6427C55.656 15.5696 55.3679 15.7157 55.0799 16.0081ZM55.0079 16.9584C55.0079 16.666 55.08 16.4467 55.296 16.2274C55.512 16.0081 55.728 15.935 56.016 15.935C56.592 15.935 57.0239 16.3736 57.0239 16.9584C57.0239 17.5431 56.592 17.9817 56.016 17.9817C55.512 18.0548 55.0079 17.5431 55.0079 16.9584Z" fill="white"/>
<path d="M58.6079 16.0079C58.3199 16.3003 58.1759 16.5927 58.1759 17.0312C58.1759 17.8353 58.8239 18.42 59.5439 18.42C60.3359 18.42 60.9119 17.7622 60.9119 17.0312C60.9119 16.6658 60.7679 16.3003 60.4799 16.0079C60.1919 15.7155 59.9039 15.5693 59.4719 15.5693C59.1839 15.5693 58.8959 15.7155 58.6079 16.0079ZM58.5359 16.9581C58.5359 16.6658 58.6079 16.4465 58.8239 16.2272C59.0399 16.0079 59.2559 15.9348 59.5439 15.9348C59.8319 15.9348 60.0479 16.0079 60.2639 16.2272C60.4799 16.4465 60.5519 16.6658 60.5519 16.9581C60.5519 17.5429 60.1199 17.9815 59.5439 17.9815C59.0399 18.0546 58.5359 17.5429 58.5359 16.9581Z" fill="white"/>
<path d="M65.6639 16.0079C65.3759 16.3003 65.2319 16.5927 65.2319 17.0312C65.2319 17.8353 65.8799 18.42 66.5999 18.42C67.3199 18.42 67.9679 17.7622 67.9679 17.0312C67.9679 16.6658 67.8239 16.3003 67.5359 16.0079C67.2479 15.7155 66.9599 15.5693 66.5279 15.5693C66.3119 15.5693 65.9519 15.7155 65.6639 16.0079ZM65.6639 16.9581C65.6639 16.6658 65.7359 16.4465 65.9519 16.2272C66.1679 16.0079 66.3839 15.9348 66.6719 15.9348C66.9599 15.9348 67.1759 16.0079 67.3919 16.2272C67.6079 16.4465 67.6799 16.6658 67.6799 16.9581C67.6799 17.5429 67.2479 17.9815 66.6719 17.9815C66.0959 18.0546 65.6639 17.5429 65.6639 16.9581Z" fill="white"/>
<path d="M69.1919 16.0079C68.9039 16.3003 68.7599 16.5927 68.7599 17.0312C68.7599 17.8353 69.4079 18.42 70.1279 18.42C70.9199 18.42 71.4959 17.7622 71.4959 17.0312C71.4959 16.6658 71.3519 16.3003 71.0639 16.0079C70.7759 15.7155 70.4879 15.5693 70.0559 15.5693C69.8399 15.5693 69.4799 15.7155 69.1919 16.0079ZM69.1919 16.9581C69.1919 16.6658 69.2639 16.4465 69.4799 16.2272C69.6959 16.0079 69.9119 15.9348 70.1999 15.9348C70.4879 15.9348 70.7039 16.0079 70.9199 16.2272C71.1359 16.4465 71.2079 16.6658 71.2079 16.9581C71.2079 17.5429 70.7759 17.9815 70.1999 17.9815C69.6239 18.0546 69.1919 17.5429 69.1919 16.9581Z" fill="white"/>
<path d="M72.72 16.0079C72.432 16.3003 72.288 16.5927 72.288 17.0312C72.288 17.8353 72.936 18.42 73.656 18.42C74.448 18.42 75.024 17.7622 75.024 17.0312C75.024 16.6658 74.88 16.3003 74.592 16.0079C74.304 15.7155 74.016 15.5693 73.584 15.5693C73.368 15.5693 73.008 15.7155 72.72 16.0079ZM72.72 16.9581C72.72 16.6658 72.792 16.4465 73.008 16.2272C73.224 16.0079 73.44 15.9348 73.728 15.9348C74.016 15.9348 74.232 16.0079 74.448 16.2272C74.664 16.4465 74.736 16.6658 74.736 16.9581C74.736 17.5429 74.304 17.9815 73.728 17.9815C73.152 18.0546 72.72 17.5429 72.72 16.9581Z" fill="white"/>
<path d="M50.616 6.72492C50.328 7.0173 50.184 7.30968 50.184 7.74825C50.184 8.55229 50.832 9.13705 51.552 9.13705C52.344 9.13705 52.92 8.4792 52.92 7.74825C52.92 6.94421 52.272 6.35945 51.552 6.35945C51.264 6.28635 50.904 6.43254 50.616 6.72492ZM50.544 7.67516C50.544 7.38278 50.616 7.16349 50.832 6.94421C51.048 6.72492 51.264 6.65183 51.552 6.65183C52.128 6.65183 52.56 7.0904 52.56 7.67516C52.56 8.25991 52.128 8.69848 51.552 8.69848C51.048 8.77158 50.544 8.25991 50.544 7.67516Z" fill="white"/>
<path d="M54.1439 6.72492C53.8559 7.0173 53.7119 7.30968 53.7119 7.74825C53.7119 8.55229 54.3599 9.13705 55.0799 9.13705C55.8719 9.13705 56.4479 8.4792 56.4479 7.74825C56.4479 6.94421 55.7999 6.35945 55.0799 6.35945C54.7919 6.28635 54.4319 6.43254 54.1439 6.72492ZM54.1439 7.67516C54.1439 7.38278 54.2159 7.16349 54.4319 6.94421C54.6479 6.72492 54.8639 6.65183 55.1519 6.65183C55.7279 6.65183 56.1599 7.0904 56.1599 7.67516C56.1599 8.25991 55.7279 8.69848 55.1519 8.69848C54.5759 8.77158 54.1439 8.25991 54.1439 7.67516Z" fill="white"/>
<path d="M60.84 7.67493C60.84 8.47898 61.488 9.06374 62.208 9.06374C63 9.06374 63.576 8.40588 63.576 7.67493C63.576 6.87089 62.928 6.28613 62.208 6.28613C61.416 6.28613 60.84 6.94399 60.84 7.67493ZM61.2 7.67493C61.2 7.09018 61.632 6.65161 62.208 6.65161C62.784 6.65161 63.216 7.09018 63.216 7.67493C63.216 8.25969 62.784 8.69826 62.208 8.69826C61.632 8.77136 61.2 8.25969 61.2 7.67493Z" fill="white"/>
<path d="M64.3679 7.67493C64.3679 8.47898 65.0159 9.06374 65.7359 9.06374C66.5279 9.06374 67.1039 8.40588 67.1039 7.67493C67.1039 6.87089 66.4559 6.28613 65.7359 6.28613C65.0159 6.28613 64.3679 6.94399 64.3679 7.67493ZM64.7279 7.67493C64.7279 7.09018 65.1599 6.65161 65.7359 6.65161C66.3119 6.65161 66.7439 7.09018 66.7439 7.67493C66.7439 8.25969 66.3119 8.69826 65.7359 8.69826C65.1599 8.77136 64.7279 8.25969 64.7279 7.67493Z" fill="white"/>
<path d="M67.8959 7.67493C67.8959 8.47898 68.5439 9.06374 69.2639 9.06374C70.0559 9.06374 70.6319 8.40588 70.6319 7.67493C70.6319 6.87089 69.9839 6.28613 69.2639 6.28613C68.5439 6.28613 67.8959 6.94399 67.8959 7.67493ZM68.2559 7.67493C68.2559 7.09018 68.6879 6.65161 69.2639 6.65161C69.8399 6.65161 70.2719 7.09018 70.2719 7.67493C70.2719 8.25969 69.8399 8.69826 69.2639 8.69826C68.6879 8.77136 68.2559 8.25969 68.2559 7.67493Z" fill="white"/>
<path d="M50.976 4.60511C50.976 5.40915 51.6239 5.99391 52.3439 5.99391C53.1359 5.99391 53.7119 5.33606 53.7119 4.60511C53.7119 3.80107 53.0639 3.21631 52.3439 3.21631C51.6239 3.21631 50.976 3.80107 50.976 4.60511ZM51.336 4.60511C51.336 4.02035 51.7679 3.58178 52.3439 3.58178C52.9199 3.58178 53.3519 4.02035 53.3519 4.60511C53.3519 5.18987 52.9199 5.62844 52.3439 5.62844C51.7679 5.62844 51.336 5.18987 51.336 4.60511Z" fill="white"/>
<path d="M54.5039 4.60511C54.5039 5.40915 55.1519 5.99391 55.8719 5.99391C56.6639 5.99391 57.2399 5.33606 57.2399 4.60511C57.2399 3.80107 56.5919 3.21631 55.8719 3.21631C55.1519 3.21631 54.5039 3.80107 54.5039 4.60511ZM54.8639 4.60511C54.8639 4.02035 55.2959 3.58178 55.8719 3.58178C56.4479 3.58178 56.8799 4.02035 56.8799 4.60511C56.8799 5.18987 56.4479 5.62844 55.8719 5.62844C55.3679 5.62844 54.8639 5.18987 54.8639 4.60511Z" fill="white"/>
<path d="M61.5599 4.60511C61.5599 5.40915 62.2079 5.99391 62.9279 5.99391C63.7199 5.99391 64.2959 5.33606 64.2959 4.60511C64.2959 3.80107 63.6479 3.21631 62.9279 3.21631C62.2079 3.21631 61.5599 3.80107 61.5599 4.60511ZM61.9199 4.60511C61.9199 4.02035 62.3519 3.58178 62.9279 3.58178C63.5039 3.58178 63.9359 4.02035 63.9359 4.60511C63.9359 5.18987 63.5039 5.62844 62.9279 5.62844C62.4239 5.62844 61.9199 5.18987 61.9199 4.60511Z" fill="white"/>
<path d="M65.1599 4.60511C65.1599 5.40915 65.8079 5.99391 66.5279 5.99391C67.3199 5.99391 67.8959 5.33606 67.8959 4.60511C67.8959 3.80107 67.2479 3.21631 66.5279 3.21631C65.7359 3.21631 65.1599 3.80107 65.1599 4.60511ZM65.4479 4.60511C65.4479 4.02035 65.8799 3.58178 66.4559 3.58178C67.0319 3.58178 67.4639 4.02035 67.4639 4.60511C67.4639 5.18987 67.0319 5.62844 66.4559 5.62844C65.9519 5.62844 65.4479 5.18987 65.4479 4.60511Z" fill="white"/>
<path d="M68.6879 4.60511C68.6879 5.40915 69.3359 5.99391 70.0559 5.99391C70.7759 5.99391 71.4239 5.33606 71.4239 4.60511C71.4239 3.80107 70.7759 3.21631 70.0559 3.21631C69.2639 3.21631 68.6879 3.80107 68.6879 4.60511ZM69.0479 4.60511C69.0479 4.02035 69.4799 3.58178 70.0559 3.58178C70.6319 3.58178 71.0639 4.02035 71.0639 4.60511C71.0639 5.18987 70.6319 5.62844 70.0559 5.62844C69.4799 5.62844 69.0479 5.18987 69.0479 4.60511Z" fill="white"/>
<path d="M47.1599 10.818C47.1599 11.622 47.8079 12.2068 48.5279 12.2068C49.3199 12.2068 49.8959 11.549 49.8959 10.818C49.8959 10.014 49.2479 9.4292 48.5279 9.4292C47.7359 9.4292 47.1599 10.014 47.1599 10.818ZM47.5199 10.818C47.5199 10.2332 47.9519 9.79467 48.5279 9.79467C49.1039 9.79467 49.5359 10.2332 49.5359 10.818C49.5359 11.4028 49.1039 11.8413 48.5279 11.8413C47.9519 11.8413 47.5199 11.4028 47.5199 10.818Z" fill="white"/>
<path d="M50.6879 10.818C50.6879 11.622 51.3359 12.2068 52.0559 12.2068C52.8479 12.2068 53.4239 11.549 53.4239 10.818C53.4239 10.014 52.7759 9.4292 52.0559 9.4292C51.2639 9.4292 50.6879 10.014 50.6879 10.818ZM51.0479 10.818C51.0479 10.2332 51.4799 9.79467 52.0559 9.79467C52.6319 9.79467 53.0639 10.2332 53.0639 10.818C53.0639 11.4028 52.6319 11.8413 52.0559 11.8413C51.4799 11.8413 51.0479 11.4028 51.0479 10.818Z" fill="white"/>
<path d="M54.2159 10.818C54.2159 11.622 54.8639 12.2068 55.5839 12.2068C56.3759 12.2068 56.9519 11.549 56.9519 10.818C56.9519 10.014 56.3039 9.4292 55.5839 9.4292C54.8639 9.4292 54.2159 10.014 54.2159 10.818ZM54.5759 10.818C54.5759 10.2332 55.0079 9.79467 55.5839 9.79467C56.1599 9.79467 56.5919 10.2332 56.5919 10.818C56.5919 11.4028 56.1599 11.8413 55.5839 11.8413C55.0079 11.8413 54.5759 11.4028 54.5759 10.818Z" fill="white"/>
<path d="M61.2719 10.8183C61.2719 11.6224 61.9199 12.2071 62.6399 12.2071C63.4319 12.2071 64.0079 11.5493 64.0079 10.8183C64.0079 10.4529 63.8639 10.0874 63.5759 9.79501C63.2879 9.50263 62.9999 9.35645 62.5679 9.35645C61.9199 9.42954 61.2719 10.0143 61.2719 10.8183ZM61.6319 10.8183C61.6319 10.2336 62.0639 9.79501 62.6399 9.79501C62.9279 9.79501 63.1439 9.86811 63.3599 10.0874C63.5759 10.3067 63.6479 10.526 63.6479 10.8183C63.6479 11.4031 63.2159 11.8417 62.6399 11.8417C62.0639 11.8417 61.6319 11.4031 61.6319 10.8183Z" fill="white"/>
<path d="M64.7999 10.818C64.7999 11.622 65.4479 12.2068 66.1679 12.2068C66.9599 12.2068 67.5359 11.549 67.5359 10.818C67.5359 10.014 66.8879 9.4292 66.1679 9.4292C65.4479 9.4292 64.7999 10.014 64.7999 10.818ZM65.1599 10.818C65.1599 10.2332 65.5919 9.79467 66.1679 9.79467C66.7439 9.79467 67.1759 10.2332 67.1759 10.818C67.1759 11.4028 66.7439 11.8413 66.1679 11.8413C65.6639 11.8413 65.1599 11.4028 65.1599 10.818Z" fill="white"/>
<path d="M68.3279 10.818C68.3279 11.622 68.9759 12.2068 69.6959 12.2068C70.4879 12.2068 71.0639 11.549 71.0639 10.818C71.0639 10.014 70.4159 9.4292 69.6959 9.4292C68.9759 9.4292 68.3279 10.014 68.3279 10.818ZM68.6879 10.818C68.6879 10.2332 69.1199 9.79467 69.6959 9.79467C70.2719 9.79467 70.7039 10.2332 70.7039 10.818C70.7039 11.4028 70.2719 11.8413 69.6959 11.8413C69.1919 11.8413 68.6879 11.4028 68.6879 10.818Z" fill="white"/>
<path d="M72.288 9.79479C72 10.0872 71.856 10.3796 71.856 10.8181C71.856 11.1836 72 11.5491 72.288 11.8414C72.576 12.1338 72.864 12.28 73.296 12.28C74.088 12.28 74.664 11.6222 74.664 10.8912C74.664 10.0872 74.016 9.50241 73.296 9.50241C72.864 9.42932 72.576 9.57551 72.288 9.79479ZM72.504 11.5491C72.288 11.3298 72.216 11.1105 72.216 10.8181C72.216 10.5257 72.288 10.3065 72.504 10.0872C72.72 9.86789 72.936 9.79479 73.224 9.79479C73.8 9.79479 74.232 10.2334 74.232 10.8181C74.232 11.4029 73.8 11.8414 73.224 11.8414C73.008 11.8414 72.72 11.7684 72.504 11.5491Z" fill="white"/>
<path d="M7.27155 30.9925C5.90355 30.9925 4.46355 31.7234 4.46355 33.3315C4.46355 35.305 6.19155 35.5243 7.70355 35.8167C10.3676 36.5477 14.3276 37.2786 14.3276 40.9334C14.3276 45.3921 10.5116 46.9271 6.76755 46.9271C2.73555 46.9271 -0.144447 45.319 -0.000446826 40.7872H3.81555C3.67155 42.7607 4.82355 44.1495 6.76755 44.1495C8.27955 44.1495 10.2956 43.711 10.2956 41.7374C10.2956 39.6176 7.77555 39.4715 6.26355 39.106C3.81555 38.4481 0.431553 37.3517 0.431553 34.1355C0.431553 30.0422 4.10355 28.2148 7.77555 28.2148C11.2316 28.2148 13.8956 30.1153 13.8956 33.697H10.2236C10.0796 31.8696 9.07155 30.9925 7.27155 30.9925Z" fill="white"/>
<path d="M22.68 46.9269C18.72 46.9269 16.272 44.2224 16.272 40.2753C16.272 36.3282 18.648 33.6968 22.68 33.6968C26.64 33.6968 29.088 36.4013 29.088 40.2753C29.088 44.2224 26.712 46.9269 22.68 46.9269ZM22.68 44.3686C24.912 44.3686 25.272 42.2489 25.272 40.2753C25.272 38.3018 24.912 36.182 22.68 36.182C20.448 36.182 20.088 38.3018 20.088 40.2753C20.088 42.2489 20.448 44.3686 22.68 44.3686Z" fill="white"/>
<path d="M34.848 33.9893H37.08V36.5477H34.848V46.5617H31.176V36.5477H29.376V34.0624H31.176C31.104 30.5539 31.392 28.2148 35.352 28.2148C36 28.2148 36.72 28.2879 37.368 28.361V30.7001C34.776 30.4077 34.704 31.5772 34.848 33.9893Z" fill="white"/>
<path d="M40.464 31.5774L44.136 30.2617V34.0626H46.872V36.5479H44.136V42.3224C44.136 43.9305 44.352 44.4421 45.648 44.4421C46.008 44.4421 46.44 44.369 46.8 44.369V46.5619C46.368 46.7812 44.424 46.9273 43.92 46.9273C41.04 46.9273 40.464 45.3924 40.464 42.6878V36.5479H38.016V34.0626H40.464V31.5774Z" fill="white"/>
<path d="M50.3999 31.5774L54.0719 30.2617V34.0626H56.8799V36.5479H54.1439V42.3224C54.1439 43.9305 54.3599 44.4421 55.6559 44.4421C56.0159 44.4421 56.4479 44.369 56.8079 44.369V46.5619C56.3759 46.7812 54.4319 46.9273 53.9279 46.9273C51.0479 46.9273 50.4719 45.3924 50.4719 42.6878V36.5479H48.0239V34.0626H50.3999V31.5774Z" fill="white"/>
<path d="M61.344 41.2986C61.344 42.9067 61.56 44.4417 63.432 44.4417C64.728 44.4417 65.376 44.0032 65.664 42.8336H68.976C68.688 45.9036 66.312 46.9269 63.432 46.9269C59.184 46.9269 57.528 44.5148 57.528 40.3484C57.528 36.6206 59.688 33.6968 63.432 33.6968C65.736 33.6968 67.68 34.5008 68.688 36.6937C69.048 37.4246 69.192 38.1556 69.264 38.9596C69.336 39.7637 69.336 40.4946 69.336 41.3717L61.344 41.2986ZM65.592 38.8134C65.592 37.4246 65.232 36.182 63.432 36.182C61.704 36.182 61.344 37.4246 61.344 38.8134H65.592Z" fill="white"/>
<path d="M74.6639 39.1061L78.2639 33.9163H82.2959L78.1199 39.3985L82.5839 46.5618H78.3359L74.6639 39.6908L74.5919 39.7639V46.5618H70.9199V28.5073H74.5919V39.1061H74.6639Z" fill="white"/>
</g>
<defs>
<clipPath id="clip0_13_11">
<rect width="90" height="47" fill="white"/>
</clipPath>
</defs>
</svg>
