<svg version="1.2" xmlns="http://www.w3.org/2000/svg" viewBox="0 0 512 512" width="64" height="64">
	<title>paper-plane-regular-svg</title>
	<style>
		.s0 { fill: #ffffff } 
	</style>
	<path id="Layer" fill-rule="evenodd" class="s0" d="m464.1 4.2c10.7-6.1 23.9-5.5 34 1.4 10.1 6.9 15.4 19.1 13.5 31.2l-64 416c-3.1 20.2-25 32.6-43.9 24.7l-123.9-51.6-62 74.3c-6.2 7.5-15.4 11.8-25.1 11.8-18.1 0-32.7-14.6-32.7-32.7v-103.3l-140.3-58.5c-24.1-10-26.2-44.4-3.6-57.3zm-272.8 332.8l-1.2-1 219.6-245.4-341.5 195.1zm259.5-220.4l-214.1 239.3 166.6 69.5z"/>
</svg>