<svg width="13" height="13" viewBox="0 0 13 13" fill="none" xmlns="http://www.w3.org/2000/svg">
<path d="M4.23291 0.653227C4.23291 1.03153 4.53524 1.34106 4.87116 1.34106C5.20708 1.34106 5.5094 1.03153 5.5094 0.687619C5.5094 0.309312 5.20708 0.0341797 4.87116 0.0341797C4.53524 0.0341797 4.23291 0.309312 4.23291 0.653227ZM4.40087 0.653227C4.40087 0.378095 4.60242 0.171746 4.87116 0.171746C5.13989 0.171746 5.34144 0.378095 5.34144 0.653227C5.34144 0.928359 5.13989 1.13471 4.87116 1.13471C4.60242 1.1691 4.40087 0.928359 4.40087 0.653227Z" fill="white"/>
<path d="M4.13159 12.3465C4.13159 12.7248 4.43392 12.9999 4.76984 12.9999C5.13935 12.9999 5.40808 12.6904 5.40808 12.3465C5.40808 11.9682 5.10576 11.693 4.76984 11.693C4.43392 11.6587 4.13159 11.9682 4.13159 12.3465ZM4.29955 12.3465C4.29955 12.0714 4.5011 11.865 4.76984 11.865C5.03857 11.865 5.24012 12.0714 5.24012 12.3465C5.24012 12.6216 5.03857 12.828 4.76984 12.828C4.5011 12.828 4.29955 12.5872 4.29955 12.3465Z" fill="white"/>
<path d="M7.42383 12.3465C7.42383 12.7248 7.72616 12.9999 8.06208 12.9999C8.43159 12.9999 8.70032 12.6904 8.70032 12.3465C8.70032 11.9682 8.39799 11.693 8.06208 11.693C7.72616 11.6587 7.42383 11.9682 7.42383 12.3465ZM7.59179 12.3465C7.59179 12.0714 7.79334 11.865 8.06208 11.865C8.33081 11.865 8.53236 12.0714 8.53236 12.3465C8.53236 12.6216 8.33081 12.828 8.06208 12.828C7.82693 12.828 7.59179 12.5872 7.59179 12.3465Z" fill="white"/>
<path d="M7.52441 0.653439C7.52441 1.03175 7.82674 1.30688 8.16266 1.30688C8.53217 1.30688 8.80091 0.997355 8.80091 0.653439C8.80091 0.275132 8.49858 0 8.16266 0C7.82674 0 7.52441 0.309524 7.52441 0.653439ZM7.69237 0.653439C7.69237 0.378307 7.89393 0.171958 8.16266 0.171958C8.4314 0.171958 8.63295 0.378307 8.63295 0.653439C8.63295 0.928571 8.4314 1.13492 8.16266 1.13492C7.92752 1.16931 7.69237 0.928571 7.69237 0.653439Z" fill="white"/>
<path d="M0.470459 9.42346C0.470459 9.80177 0.772787 10.0769 1.10871 10.0769C1.47822 10.0769 1.74695 9.76737 1.74695 9.42346C1.74695 9.04515 1.44463 8.77002 1.10871 8.77002C0.739195 8.77002 0.470459 9.04515 0.470459 9.42346ZM0.638419 9.42346C0.638419 9.14833 0.839971 8.94198 1.10871 8.94198C1.37744 8.94198 1.57899 9.14833 1.57899 9.42346C1.57899 9.69859 1.37744 9.90494 1.10871 9.90494C0.839971 9.90494 0.638419 9.69859 0.638419 9.42346Z" fill="white"/>
<path d="M2.11621 9.42346C2.11621 9.80177 2.41854 10.0769 2.75446 10.0769C3.12397 10.0769 3.3927 9.76737 3.3927 9.42346C3.3927 9.04515 3.09037 8.77002 2.75446 8.77002C2.38494 8.77002 2.11621 9.04515 2.11621 9.42346ZM2.28417 9.42346C2.28417 9.14833 2.48572 8.94198 2.75446 8.94198C3.02319 8.94198 3.22474 9.14833 3.22474 9.42346C3.22474 9.69859 3.02319 9.90494 2.75446 9.90494C2.48572 9.90494 2.28417 9.69859 2.28417 9.42346Z" fill="white"/>
<path d="M3.76196 9.42346C3.76196 9.80177 4.06429 10.0769 4.40021 10.0769C4.76972 10.0769 5.03846 9.76737 5.03846 9.42346C5.03846 9.04515 4.73613 8.77002 4.40021 8.77002C4.06429 8.77002 3.76196 9.04515 3.76196 9.42346ZM3.92992 9.42346C3.92992 9.14833 4.13147 8.94198 4.40021 8.94198C4.66895 8.94198 4.8705 9.14833 4.8705 9.42346C4.8705 9.69859 4.66895 9.90494 4.40021 9.90494C4.13147 9.90494 3.92992 9.69859 3.92992 9.42346Z" fill="white"/>
<path d="M5.4082 9.42346C5.4082 9.80177 5.71053 10.0769 6.04645 10.0769C6.41596 10.0769 6.6847 9.76737 6.6847 9.42346C6.6847 9.04515 6.38237 8.77002 6.04645 8.77002C5.71053 8.77002 5.4082 9.04515 5.4082 9.42346ZM5.57616 9.42346C5.57616 9.14833 5.77771 8.94198 6.04645 8.94198C6.31519 8.94198 6.51674 9.14833 6.51674 9.42346C6.51674 9.69859 6.31519 9.90494 6.04645 9.90494C5.77771 9.90494 5.57616 9.69859 5.57616 9.42346Z" fill="white"/>
<path d="M8.7002 9.42346C8.7002 9.80177 9.00252 10.0769 9.33844 10.0769C9.70795 10.0769 9.97669 9.76737 9.97669 9.42346C9.97669 9.04515 9.67436 8.77002 9.33844 8.77002C9.00252 8.77002 8.7002 9.04515 8.7002 9.42346ZM8.86815 9.42346C8.86815 9.14833 9.06971 8.94198 9.33844 8.94198C9.60718 8.94198 9.80873 9.14833 9.80873 9.42346C9.80873 9.69859 9.60718 9.90494 9.33844 9.90494C9.1033 9.90494 8.86815 9.69859 8.86815 9.42346Z" fill="white"/>
<path d="M10.3464 9.42346C10.3464 9.80177 10.6488 10.0769 10.9847 10.0769C11.3542 10.0769 11.6229 9.76737 11.6229 9.42346C11.6229 9.04515 11.3206 8.77002 10.9847 8.77002C10.6488 8.77002 10.3464 9.04515 10.3464 9.42346ZM10.5144 9.42346C10.5144 9.14833 10.7159 8.94198 10.9847 8.94198C11.2534 8.94198 11.455 9.14833 11.455 9.42346C11.455 9.69859 11.2534 9.90494 10.9847 9.90494C10.7495 9.90494 10.5144 9.69859 10.5144 9.42346Z" fill="white"/>
<path d="M1.71313 10.8683C1.71313 11.2466 2.01546 11.5217 2.35138 11.5217C2.72089 11.5217 2.98963 11.2122 2.98963 10.8683C2.98963 10.49 2.6873 10.2148 2.35138 10.2148C2.01546 10.2148 1.71313 10.5244 1.71313 10.8683ZM1.88109 10.8683C1.88109 10.5932 2.08265 10.3868 2.35138 10.3868C2.62012 10.3868 2.82167 10.5932 2.82167 10.8683C2.82167 11.1434 2.62012 11.3498 2.35138 11.3498C2.11624 11.3842 1.88109 11.1434 1.88109 10.8683Z" fill="white"/>
<path d="M3.35889 10.8683C3.35889 11.2466 3.66121 11.5217 3.99713 11.5217C4.36664 11.5217 4.63538 11.2122 4.63538 10.8683C4.63538 10.49 4.33305 10.2148 3.99713 10.2148C3.66121 10.2148 3.35889 10.5244 3.35889 10.8683ZM3.52685 10.8683C3.52685 10.5932 3.7284 10.3868 3.99713 10.3868C4.26587 10.3868 4.46742 10.5932 4.46742 10.8683C4.46742 11.1434 4.26587 11.3498 3.99713 11.3498C3.76199 11.3842 3.52685 11.1434 3.52685 10.8683Z" fill="white"/>
<path d="M5.00513 10.8683C5.00513 11.2466 5.30745 11.5217 5.64337 11.5217C6.01289 11.5217 6.28162 11.2122 6.28162 10.8683C6.28162 10.49 5.97929 10.2148 5.64337 10.2148C5.30745 10.2148 5.00513 10.5244 5.00513 10.8683ZM5.17309 10.8683C5.17309 10.5932 5.37464 10.3868 5.64337 10.3868C5.91211 10.3868 6.11366 10.5932 6.11366 10.8683C6.11366 11.1434 5.91211 11.3498 5.64337 11.3498C5.40823 11.3842 5.17309 11.1434 5.17309 10.8683Z" fill="white"/>
<path d="M8.33105 10.8683C8.33105 11.2466 8.63338 11.5217 8.9693 11.5217C9.33881 11.5217 9.60755 11.2122 9.60755 10.8683C9.60755 10.49 9.30522 10.2148 8.9693 10.2148C8.59979 10.2148 8.33105 10.5244 8.33105 10.8683ZM8.49901 10.8683C8.49901 10.5932 8.70056 10.3868 8.9693 10.3868C9.23803 10.3868 9.43959 10.5932 9.43959 10.8683C9.43959 11.1434 9.23803 11.3498 8.9693 11.3498C8.70056 11.3842 8.49901 11.1434 8.49901 10.8683Z" fill="white"/>
<path d="M9.97681 10.8683C9.97681 11.2466 10.2791 11.5217 10.6151 11.5217C10.9846 11.5217 11.2533 11.2122 11.2533 10.8683C11.2533 10.49 10.951 10.2148 10.6151 10.2148C10.2455 10.2148 9.97681 10.5244 9.97681 10.8683ZM10.1448 10.8683C10.1448 10.5932 10.3463 10.3868 10.6151 10.3868C10.8838 10.3868 11.0853 10.5932 11.0853 10.8683C11.0853 11.1434 10.8838 11.3498 10.6151 11.3498C10.3463 11.3842 10.1448 11.1434 10.1448 10.8683Z" fill="white"/>
<path d="M1.00781 6.49963C1.00781 6.87794 1.31014 7.15307 1.64606 7.15307C2.01557 7.15307 2.28431 6.84355 2.28431 6.49963C2.28431 6.12132 1.98198 5.84619 1.64606 5.84619C1.27655 5.84619 1.00781 6.15572 1.00781 6.49963ZM1.17577 6.49963C1.17577 6.2245 1.37732 6.01815 1.64606 6.01815C1.91479 6.01815 2.11635 6.2245 2.11635 6.49963C2.11635 6.77476 1.91479 6.98111 1.64606 6.98111C1.37732 6.98111 1.17577 6.77476 1.17577 6.49963Z" fill="white"/>
<path d="M2.65356 6.49963C2.65356 6.87794 2.95589 7.15307 3.29181 7.15307C3.66132 7.15307 3.93006 6.84355 3.93006 6.49963C3.93006 6.12132 3.62773 5.84619 3.29181 5.84619C2.95589 5.84619 2.65356 6.15572 2.65356 6.49963ZM2.82152 6.49963C2.82152 6.2245 3.02308 6.01815 3.29181 6.01815C3.56055 6.01815 3.7621 6.2245 3.7621 6.49963C3.7621 6.77476 3.56055 6.98111 3.29181 6.98111C3.02308 6.98111 2.82152 6.77476 2.82152 6.49963Z" fill="white"/>
<path d="M4.2998 6.49963C4.2998 6.87794 4.60213 7.15307 4.93805 7.15307C5.30756 7.15307 5.5763 6.84355 5.5763 6.49963C5.5763 6.12132 5.27397 5.84619 4.93805 5.84619C4.60213 5.84619 4.2998 6.15572 4.2998 6.49963ZM4.46776 6.49963C4.46776 6.2245 4.66931 6.01815 4.93805 6.01815C5.20678 6.01815 5.40834 6.2245 5.40834 6.49963C5.40834 6.77476 5.20678 6.98111 4.93805 6.98111C4.66931 6.98111 4.46776 6.77476 4.46776 6.49963Z" fill="white"/>
<path d="M7.5918 6.49963C7.5918 6.87794 7.89412 7.15307 8.23004 7.15307C8.59956 7.15307 8.86829 6.84355 8.86829 6.49963C8.86829 6.12132 8.56596 5.84619 8.23004 5.84619C7.89412 5.84619 7.5918 6.15572 7.5918 6.49963ZM7.75976 6.49963C7.75976 6.2245 7.96131 6.01815 8.23004 6.01815C8.49878 6.01815 8.70033 6.2245 8.70033 6.49963C8.70033 6.77476 8.49878 6.98111 8.23004 6.98111C7.96131 6.98111 7.75976 6.77476 7.75976 6.49963Z" fill="white"/>
<path d="M9.23804 6.49963C9.23804 6.87794 9.54036 7.15307 9.87628 7.15307C10.2458 7.15307 10.5145 6.84355 10.5145 6.49963C10.5145 6.12132 10.2122 5.84619 9.87628 5.84619C9.54036 5.84619 9.23804 6.15572 9.23804 6.49963ZM9.406 6.49963C9.406 6.2245 9.60755 6.01815 9.87628 6.01815C10.145 6.01815 10.3466 6.2245 10.3466 6.49963C10.3466 6.77476 10.145 6.98111 9.87628 6.98111C9.64114 6.98111 9.406 6.77476 9.406 6.49963Z" fill="white"/>
<path d="M10.8838 6.49963C10.8838 6.87794 11.1861 7.15307 11.522 7.15307C11.8915 7.15307 12.1603 6.84355 12.1603 6.49963C12.1603 6.12132 11.858 5.84619 11.522 5.84619C11.1861 5.84619 10.8838 6.15572 10.8838 6.49963ZM11.0517 6.49963C11.0517 6.2245 11.2533 6.01815 11.522 6.01815C11.7908 6.01815 11.9923 6.2245 11.9923 6.49963C11.9923 6.77476 11.7908 6.98111 11.522 6.98111C11.2869 6.98111 11.0517 6.77476 11.0517 6.49963Z" fill="white"/>
<path d="M0.402967 7.49736C0.268599 7.63493 0.201416 7.7725 0.201416 7.97885C0.201416 8.35715 0.503744 8.63229 0.839663 8.63229C1.20917 8.63229 1.47791 8.32276 1.47791 7.97885C1.47791 7.80689 1.41073 7.63493 1.27636 7.49736C1.14199 7.3598 1.00762 7.29102 0.806072 7.29102C0.671704 7.29102 0.503743 7.3598 0.402967 7.49736ZM0.369376 7.94446C0.369376 7.80689 0.402968 7.70371 0.503744 7.60054C0.60452 7.49737 0.705295 7.46297 0.839663 7.46297C0.974031 7.46297 1.07481 7.49737 1.17558 7.60054C1.27636 7.70371 1.30995 7.80689 1.30995 7.94446C1.30995 8.21959 1.1084 8.42594 0.839663 8.42594C0.570928 8.46033 0.369376 8.21959 0.369376 7.94446Z" fill="white"/>
<path d="M2.04945 7.49736C1.91508 7.63493 1.8479 7.7725 1.8479 7.97885C1.8479 8.35715 2.15023 8.63229 2.48615 8.63229C2.85566 8.63229 3.12439 8.32276 3.12439 7.97885C3.12439 7.80689 3.05721 7.63493 2.92284 7.49736C2.78847 7.3598 2.65411 7.29102 2.45256 7.29102C2.31819 7.29102 2.15023 7.3598 2.04945 7.49736ZM2.01586 7.94446C2.01586 7.80689 2.04945 7.70371 2.15023 7.60054C2.251 7.49737 2.35178 7.46297 2.48615 7.46297C2.62052 7.46297 2.72129 7.49737 2.82207 7.60054C2.92284 7.70371 2.95643 7.80689 2.95643 7.94446C2.95643 8.21959 2.75488 8.42594 2.48615 8.42594C2.251 8.46033 2.01586 8.21959 2.01586 7.94446Z" fill="white"/>
<path d="M3.6952 7.49713C3.56084 7.63469 3.49365 7.77226 3.49365 7.97861C3.49365 8.35692 3.79598 8.63205 4.1319 8.63205C4.50141 8.63205 4.77014 8.32252 4.77014 7.97861C4.77014 7.6003 4.46782 7.32517 4.1319 7.32517C3.96394 7.29078 3.82957 7.35956 3.6952 7.49713ZM3.66161 7.94422C3.66161 7.80665 3.6952 7.70348 3.79598 7.6003C3.89676 7.49713 3.99753 7.46274 4.1319 7.46274C4.40063 7.46274 4.60218 7.66909 4.60218 7.94422C4.60218 8.21935 4.40063 8.4257 4.1319 8.4257C3.89676 8.46009 3.66161 8.21935 3.66161 7.94422Z" fill="white"/>
<path d="M5.34096 7.49736C5.20659 7.63493 5.1394 7.7725 5.1394 7.97885C5.1394 8.35715 5.44173 8.63229 5.77765 8.63229C6.14716 8.63229 6.4159 8.32276 6.4159 7.97885C6.4159 7.80689 6.34871 7.63493 6.21434 7.49736C6.07998 7.3598 5.94561 7.29102 5.74406 7.29102C5.60969 7.29102 5.47532 7.3598 5.34096 7.49736ZM5.30736 7.94446C5.30736 7.80689 5.34095 7.70371 5.44173 7.60054C5.54251 7.49737 5.64328 7.46297 5.77765 7.46297C5.91202 7.46297 6.01279 7.49737 6.11357 7.60054C6.21434 7.70371 6.24794 7.80689 6.24794 7.94446C6.24794 8.21959 6.04638 8.42594 5.77765 8.42594C5.54251 8.46033 5.30736 8.21959 5.30736 7.94446Z" fill="white"/>
<path d="M8.63344 7.49736C8.49907 7.63493 8.43188 7.7725 8.43188 7.97885C8.43188 8.35715 8.73421 8.63229 9.07013 8.63229C9.40605 8.63229 9.70838 8.32276 9.70838 7.97885C9.70838 7.80689 9.6412 7.63493 9.50683 7.49736C9.37246 7.3598 9.23809 7.29102 9.03654 7.29102C8.93576 7.29102 8.7678 7.3598 8.63344 7.49736ZM8.63344 7.94446C8.63344 7.80689 8.66703 7.70371 8.7678 7.60054C8.86858 7.49737 8.96936 7.46297 9.10372 7.46297C9.23809 7.46297 9.33887 7.49737 9.43964 7.60054C9.54042 7.70371 9.57401 7.80689 9.57401 7.94446C9.57401 8.21959 9.37246 8.42594 9.10372 8.42594C8.83499 8.46033 8.63344 8.21959 8.63344 7.94446Z" fill="white"/>
<path d="M10.2792 7.49736C10.1448 7.63493 10.0776 7.7725 10.0776 7.97885C10.0776 8.35715 10.38 8.63229 10.7159 8.63229C11.0854 8.63229 11.3541 8.32276 11.3541 7.97885C11.3541 7.80689 11.2869 7.63493 11.1526 7.49736C11.0182 7.3598 10.8838 7.29102 10.6823 7.29102C10.5815 7.29102 10.4136 7.3598 10.2792 7.49736ZM10.2792 7.94446C10.2792 7.80689 10.3128 7.70371 10.4136 7.60054C10.5143 7.49737 10.6151 7.46297 10.7495 7.46297C10.8838 7.46297 10.9846 7.49737 11.0854 7.60054C11.1862 7.70371 11.2198 7.80689 11.2198 7.94446C11.2198 8.21959 11.0182 8.42594 10.7495 8.42594C10.4807 8.46033 10.2792 8.21959 10.2792 7.94446Z" fill="white"/>
<path d="M11.9249 7.49736C11.7906 7.63493 11.7234 7.7725 11.7234 7.97885C11.7234 8.35715 12.0257 8.63229 12.3616 8.63229C12.7311 8.63229 12.9999 8.32276 12.9999 7.97885C12.9999 7.80689 12.9327 7.63493 12.7983 7.49736C12.664 7.3598 12.5296 7.29102 12.328 7.29102C12.2273 7.29102 12.0593 7.3598 11.9249 7.49736ZM11.9249 7.94446C11.9249 7.80689 11.9585 7.70371 12.0593 7.60054C12.1601 7.49737 12.2609 7.46297 12.3952 7.46297C12.5296 7.46297 12.6304 7.49737 12.7311 7.60054C12.8319 7.70371 12.8655 7.80689 12.8655 7.94446C12.8655 8.21959 12.664 8.42594 12.3952 8.42594C12.1265 8.46033 11.9249 8.21959 11.9249 7.94446Z" fill="white"/>
<path d="M1.61244 3.12994C1.47807 3.26751 1.41089 3.40507 1.41089 3.61142C1.41089 3.98973 1.71322 4.26486 2.04914 4.26486C2.41865 4.26486 2.68738 3.95534 2.68738 3.61142C2.68738 3.23312 2.38505 2.95798 2.04914 2.95798C1.91477 2.92359 1.74681 2.99237 1.61244 3.12994ZM1.57885 3.57703C1.57885 3.43946 1.61244 3.33629 1.71322 3.23312C1.81399 3.12994 1.91477 3.09555 2.04914 3.09555C2.31787 3.09555 2.51942 3.3019 2.51942 3.57703C2.51942 3.85216 2.31787 4.05851 2.04914 4.05851C1.81399 4.0929 1.57885 3.85216 1.57885 3.57703Z" fill="white"/>
<path d="M3.25868 3.12994C3.12431 3.26751 3.05713 3.40507 3.05713 3.61142C3.05713 3.98973 3.35946 4.26486 3.69538 4.26486C4.06489 4.26486 4.33362 3.95534 4.33362 3.61142C4.33362 3.23312 4.0313 2.95798 3.69538 2.95798C3.56101 2.92359 3.39305 2.99237 3.25868 3.12994ZM3.25868 3.57703C3.25868 3.43946 3.29227 3.33629 3.39305 3.23312C3.49382 3.12994 3.5946 3.09555 3.72897 3.09555C3.9977 3.09555 4.19925 3.3019 4.19925 3.57703C4.19925 3.85216 3.9977 4.05851 3.72897 4.05851C3.46023 4.0929 3.25868 3.85216 3.25868 3.57703Z" fill="white"/>
<path d="M6.38257 3.57727C6.38257 3.95557 6.6849 4.23071 7.02082 4.23071C7.39033 4.23071 7.65906 3.92118 7.65906 3.57727C7.65906 3.19896 7.35673 2.92383 7.02082 2.92383C6.6513 2.92383 6.38257 3.23335 6.38257 3.57727ZM6.55053 3.57727C6.55053 3.30213 6.75208 3.09579 7.02082 3.09579C7.28955 3.09579 7.4911 3.30213 7.4911 3.57727C7.4911 3.8524 7.28955 4.05875 7.02082 4.05875C6.75208 4.09314 6.55053 3.8524 6.55053 3.57727Z" fill="white"/>
<path d="M8.02832 3.57727C8.02832 3.95557 8.33065 4.23071 8.66657 4.23071C9.03608 4.23071 9.30481 3.92118 9.30481 3.57727C9.30481 3.19896 9.00249 2.92383 8.66657 2.92383C8.33065 2.92383 8.02832 3.23335 8.02832 3.57727ZM8.19628 3.57727C8.19628 3.30213 8.39783 3.09579 8.66657 3.09579C8.9353 3.09579 9.13685 3.30213 9.13685 3.57727C9.13685 3.8524 8.9353 4.05875 8.66657 4.05875C8.39783 4.09314 8.19628 3.8524 8.19628 3.57727Z" fill="white"/>
<path d="M9.67456 3.57727C9.67456 3.95557 9.97689 4.23071 10.3128 4.23071C10.6823 4.23071 10.9511 3.92118 10.9511 3.57727C10.9511 3.19896 10.6487 2.92383 10.3128 2.92383C9.97689 2.92383 9.67456 3.23335 9.67456 3.57727ZM9.84252 3.57727C9.84252 3.30213 10.0441 3.09579 10.3128 3.09579C10.5815 3.09579 10.7831 3.30213 10.7831 3.57727C10.7831 3.8524 10.5815 4.05875 10.3128 4.05875C10.0441 4.09314 9.84252 3.8524 9.84252 3.57727Z" fill="white"/>
<path d="M1.78052 2.13244C1.78052 2.51075 2.08284 2.78588 2.41876 2.78588C2.78827 2.78588 3.05701 2.47636 3.05701 2.13244C3.05701 1.75414 2.75468 1.479 2.41876 1.479C2.08284 1.479 1.78052 1.75414 1.78052 2.13244ZM1.94848 2.13244C1.94848 1.85731 2.15003 1.65096 2.41876 1.65096C2.6875 1.65096 2.88905 1.85731 2.88905 2.13244C2.88905 2.40758 2.6875 2.61392 2.41876 2.61392C2.15003 2.61392 1.94848 2.40758 1.94848 2.13244Z" fill="white"/>
<path d="M3.42627 2.13244C3.42627 2.51075 3.7286 2.78588 4.06452 2.78588C4.43403 2.78588 4.70276 2.47636 4.70276 2.13244C4.70276 1.75414 4.40044 1.479 4.06452 1.479C3.7286 1.479 3.42627 1.75414 3.42627 2.13244ZM3.59423 2.13244C3.59423 1.85731 3.79578 1.65096 4.06452 1.65096C4.33325 1.65096 4.5348 1.85731 4.5348 2.13244C4.5348 2.40758 4.33325 2.61392 4.06452 2.61392C3.82937 2.61392 3.59423 2.40758 3.59423 2.13244Z" fill="white"/>
<path d="M6.71826 2.13244C6.71826 2.51075 7.02059 2.78588 7.35651 2.78588C7.72602 2.78588 7.99476 2.47636 7.99476 2.13244C7.99476 1.75414 7.69243 1.479 7.35651 1.479C7.02059 1.479 6.71826 1.75414 6.71826 2.13244ZM6.88622 2.13244C6.88622 1.85731 7.08777 1.65096 7.35651 1.65096C7.62524 1.65096 7.8268 1.85731 7.8268 2.13244C7.8268 2.40758 7.62524 2.61392 7.35651 2.61392C7.12137 2.61392 6.88622 2.40758 6.88622 2.13244Z" fill="white"/>
<path d="M8.39795 2.13244C8.39795 2.51075 8.70028 2.78588 9.0362 2.78588C9.40571 2.78588 9.67444 2.47636 9.67444 2.13244C9.67444 1.75414 9.37212 1.479 9.0362 1.479C8.66669 1.479 8.39795 1.75414 8.39795 2.13244ZM8.53232 2.13244C8.53232 1.85731 8.73387 1.65096 9.0026 1.65096C9.27134 1.65096 9.47289 1.85731 9.47289 2.13244C9.47289 2.40758 9.27134 2.61392 9.0026 2.61392C8.76746 2.61392 8.53232 2.40758 8.53232 2.13244Z" fill="white"/>
<path d="M10.0442 2.13244C10.0442 2.51075 10.3465 2.78588 10.6824 2.78588C11.0184 2.78588 11.3207 2.47636 11.3207 2.13244C11.3207 1.75414 11.0184 1.479 10.6824 1.479C10.3129 1.479 10.0442 1.75414 10.0442 2.13244ZM10.2121 2.13244C10.2121 1.85731 10.4137 1.65096 10.6824 1.65096C10.9512 1.65096 11.1527 1.85731 11.1527 2.13244C11.1527 2.40758 10.9512 2.61392 10.6824 2.61392C10.4137 2.61392 10.2121 2.40758 10.2121 2.13244Z" fill="white"/>
<path d="M0 5.05529C0 5.4336 0.302328 5.70873 0.638247 5.70873C1.00776 5.70873 1.27649 5.39921 1.27649 5.05529C1.27649 4.67699 0.974166 4.40186 0.638247 4.40186C0.268736 4.40186 0 4.67699 0 5.05529ZM0.16796 5.05529C0.16796 4.78016 0.369512 4.57381 0.638247 4.57381C0.906982 4.57381 1.10853 4.78016 1.10853 5.05529C1.10853 5.33043 0.906982 5.53678 0.638247 5.53678C0.369512 5.53678 0.16796 5.33043 0.16796 5.05529Z" fill="white"/>
<path d="M1.64624 5.05529C1.64624 5.4336 1.94857 5.70873 2.28449 5.70873C2.654 5.70873 2.92273 5.39921 2.92273 5.05529C2.92273 4.67699 2.62041 4.40186 2.28449 4.40186C1.91498 4.40186 1.64624 4.67699 1.64624 5.05529ZM1.8142 5.05529C1.8142 4.78016 2.01575 4.57381 2.28449 4.57381C2.55322 4.57381 2.75477 4.78016 2.75477 5.05529C2.75477 5.33043 2.55322 5.53678 2.28449 5.53678C2.01575 5.53678 1.8142 5.33043 1.8142 5.05529Z" fill="white"/>
<path d="M3.29199 5.05529C3.29199 5.4336 3.59432 5.70873 3.93024 5.70873C4.29975 5.70873 4.56848 5.39921 4.56848 5.05529C4.56848 4.67699 4.26616 4.40186 3.93024 4.40186C3.59432 4.40186 3.29199 4.67699 3.29199 5.05529ZM3.45995 5.05529C3.45995 4.78016 3.6615 4.57381 3.93024 4.57381C4.19897 4.57381 4.40052 4.78016 4.40052 5.05529C4.40052 5.33043 4.19897 5.53678 3.93024 5.53678C3.6615 5.53678 3.45995 5.33043 3.45995 5.05529Z" fill="white"/>
<path d="M6.58398 5.05551C6.58398 5.43381 6.88631 5.70895 7.22223 5.70895C7.59174 5.70895 7.86048 5.39942 7.86048 5.05551C7.86048 4.88355 7.7933 4.71159 7.65893 4.57402C7.52456 4.43646 7.39019 4.36768 7.18864 4.36768C6.88631 4.40207 6.58398 4.6772 6.58398 5.05551ZM6.75194 5.05551C6.75194 4.78037 6.9535 4.57402 7.22223 4.57402C7.3566 4.57402 7.45737 4.60842 7.55815 4.71159C7.65893 4.81477 7.69252 4.91794 7.69252 5.05551C7.69252 5.33064 7.49097 5.53699 7.22223 5.53699C6.9535 5.53699 6.75194 5.33064 6.75194 5.05551Z" fill="white"/>
<path d="M8.22998 5.05529C8.22998 5.4336 8.53231 5.70873 8.86823 5.70873C9.23774 5.70873 9.50647 5.39921 9.50647 5.05529C9.50647 4.67699 9.20415 4.40186 8.86823 4.40186C8.53231 4.40186 8.22998 4.67699 8.22998 5.05529ZM8.39794 5.05529C8.39794 4.78016 8.59949 4.57381 8.86823 4.57381C9.13696 4.57381 9.33851 4.78016 9.33851 5.05529C9.33851 5.33043 9.13696 5.53678 8.86823 5.53678C8.63308 5.53678 8.39794 5.33043 8.39794 5.05529Z" fill="white"/>
<path d="M9.87622 5.05529C9.87622 5.4336 10.1785 5.70873 10.5145 5.70873C10.884 5.70873 11.1527 5.39921 11.1527 5.05529C11.1527 4.67699 10.8504 4.40186 10.5145 4.40186C10.1785 4.40186 9.87622 4.67699 9.87622 5.05529ZM10.0442 5.05529C10.0442 4.78016 10.2457 4.57381 10.5145 4.57381C10.7832 4.57381 10.9848 4.78016 10.9848 5.05529C10.9848 5.33043 10.7832 5.53678 10.5145 5.53678C10.2793 5.53678 10.0442 5.33043 10.0442 5.05529Z" fill="white"/>
<path d="M11.7235 4.57376C11.5892 4.71132 11.522 4.84889 11.522 5.05524C11.522 5.2272 11.5892 5.39916 11.7235 5.53672C11.8579 5.67429 11.9923 5.74307 12.1938 5.74307C12.5633 5.74307 12.8321 5.43355 12.8321 5.08963C12.8321 4.71132 12.5297 4.43619 12.1938 4.43619C11.9923 4.4018 11.8579 4.47058 11.7235 4.57376ZM11.8243 5.39916C11.7235 5.29598 11.6899 5.19281 11.6899 5.05524C11.6899 4.91767 11.7235 4.8145 11.8243 4.71132C11.9251 4.60815 12.0258 4.57376 12.1602 4.57376C12.429 4.57376 12.6305 4.78011 12.6305 5.05524C12.6305 5.33037 12.429 5.53672 12.1602 5.53672C12.0594 5.53672 11.9251 5.50233 11.8243 5.39916Z" fill="white"/>
</svg>
